<svg xmlns="http://www.w3.org/2000/svg" version="1.1" xmlns:xlink="http://www.w3.org/1999/xlink" xmlns:svgjs="http://svgjs.dev/svgjs" viewBox="0 0 640 800" opacity="1"><g fill="none" stroke-width="1" stroke="hsl(353, 100%, 50%)" stroke-linecap="round"><path d="M2352.87 553.58C2461.95 586.38 2497.5 615.65 2450.08 641.37 2334.45 666.96 2184.3 688.79 2042.84 706.69 1949.39 724.25 1928.79 737.63 1984.1 746.77 2098.95 755.51 2238.18 760.07 2362.03 760.69 2437.49 761.57 2442.08 759.37 2374.61 754.97 2251.72 752.75 2103.85 750.36 1966.73 749.5 1871.52 754.11 1838.79 763.34 1872.07 779.35 1960.95 804.59 2079.42 839.53 2196.62 885.78 2285.25 942.9 2321.51 1011.71 2296.59 1091.69 2214.67 1178.64 2091.6 1272.19 1951.65 1368.68 1819.77 1461.21 1720.27 1547.45 1668.23 1621.9 1669.63 1678.74 1719.13 1715.29 1802.35 1728.29 1902.48 1718.41 1995.97 1686.05 2064.05 1634.71 2094.87 1573.8 2079.96 1508.58 2021.2 1448.73 1925.8 1406.57 1807.26 1388.13 1681.47 1400.58 1562.19 1447.14 1464.49 1526.16 1397.33 1632.32 1365.15 1753.61 1367.84 1878.31 1399.86 1991.16 1455.43 2076.61 1522.27 2124.62 1589.51 2128.28 1650.27 2089.67 1693.41 2015.53 1713.72 1920.04 1709.68 1825.04 1679.52 1748.29 1626.1 1708.41 1552.42 1718.54 1464.53 1780.56 1368.73 1887.92 1268.38 2022.7 1171.16 2162.39 1081.51 2280.9 1000.7 2355 933.13 2371.05 879.48 2326.2 839.3 2233.68 812.45 2114.72 796.9 1999.28 792.24 1919.57 794.99 1896.51 802.48 1940.54 815.54 2044.91 829.35 2187.39 841.97 2335.16 855.65 2452 865.69 2509.65 871.28 2493.24 875.55 2409.17 874.61 2279.93 868.54 2142.1 860.57 2037.53 847.82 1996.19 830.78 2033.07 812.28 2140.42 790.24 2289.24 765.25 2437.71 739.5 2542.68 711.49 2573.19 681.64 2519.23 651.58 2398.04 620.08 2245.14 587.28 2107.77 554.48 2030.41 520.77 2036.02 486.04 2121.17 451.11 2260.06 414.76 2408.24 376.62 2520.71 337.73 2565.14 296.34 2527.19 251.93 2418.44 206.05 2269.55 156.4 2122.14 102.51 2015.85 46.72 1977.88 -13.64 2015.54 -78.63 2114.79 -144.95 2247.75 -215.13 2374.8 -288.32 2460.89 -360.44 2483.68 -433.14 2434.99 -504.41 2326.66 -570.12 2183.44 -630.42 2038.75 -682.6 1924.36 -723.9 1863.34 -753.18 1865.96 -768.4 1926.42 -770.13 2028.63 -757.21 2144.34 -730.25 2245.2 -694.46 2309.19 -650.31 2319.11 -602.21 2272.17 -558.65 2176.01 -522.18 2047.96 -499.06 1910.7 -496.19 1785.64 -515.71 1693.29 -560.46 1645.26 -629.55 1645.62 -720.57 1689 -828.26 1762.79 -942.43 1853.33 -1055.26 1940.25 -1155.83 2007.48 -1232.85 2044.88 -1279.55 2043.34 -1290.36 2002.64 -1266.19 1926.81 -1210.46 1824.9 -1132.08 1708.91 -1047.19 1589.1 -968.49 1479.07 -911.82 1388.06 -891.79 1321.44 -914.51 1283.48 -981.81 1273.18 -1086.37 1288.78 -1215.19 1323.66 -1349.48 1370.55 -1466.85 1425.36 -1549.32 1478.01 -1582.47 1522.37 -1562.17 1556.54 -1493.19 1574.18 -1390.58 1574.04 -1279.88 1556.92 -1184.81 1522.52 -1129.57 1473.43 -1131.34 1411.2 -1192.99 1339.73 -1305.67 1262.63 -1446.9 1180.26 -1588.07 1097.8 -1698.27 1017.72 -1752.87 938.83 -1740.07 865.42 -1663.37 798.22 -1544.76 735.26 -1413.98 679.04 -1306.71 629.04 -1254.86 583.49 -1273.62 543.15 -1361.74 506.98 -1498.24 474.09 -1648.63 443.9 -1773.09 415.37 -1838.01 388.72 -1825.49 362.47 -1738.52 335.85 -1603.55 310.04 -1458.31 283.02 -1345.96 254.33 -1301.83 225.83 -1339.04 195.27 -1448.12 162.47 -1597.06 129.67 -1739.44 95.02 -1833.04 58.73 -1851.68 22.64 -1789.23 -14.69 -1664.56 -52.76 -1513.04 -90.03 -1377.1 -127.21 -1293.28 -163.47 -1283.11 -197.86 -1346.48 -230.07 -1462.98 -259.04 -1600.68 -284.73 -1719.19 -305.7 -1786.23 -320.88 -1784.48 -331.61 -1712.56 -335.53 -1588.39 -332.08 -1440.98 -324.39 -1305.18 -309.86 -1210.94 -289.2 -1177.34 -267.33 -1208.3 -242.42 -1291.92 -216.9 -1407.23 -196.63 -1523.06 -181.3 -1611.25 -174.45 -1652.25 -180.75 -1634.11 -200.99 -1560.03 -237.72 -1443.19 -291.42 -1305.71 -362.13 -1172.42 -448.55 -1064.76 -545.15 -1000.19 -649.22 -985.54 -754.58 -1019.76 -852.03 -1091.18 -936.61 -1182.61 -1000.99 -1277.46 -1039.48 -1354.55 -1049.4 -1399.54 -1029.72 -1405.03 -985.65 -1367.38 -921.61 -1291.76 -846.8 -1186.69 -775.81 -1066.11 -717.91 -944.47 -685.06 -833.25 -687.35 -745 -727.76 -686.23 -806.06 -659.76 -914.18 -664.44 -1040.93 -694.76 -1170.2 -745.81 -1282.73 -806.58 -1363.75 -867.76 -1400.59 -924.13 -1389.05 -965.71 -1332.05 -987.94 -1241.15 -989.76 -1138.05 -968.72 -1042.96 -926.77 -978.53 -866.02 -963.33 -790.78 -1003.76 -706 -1097 -613.87 -1227.11 -520.96 -1370.82 -431.24 -1499.72 -345.22 -1586.88 -267.83 -1614.89 -200.33 -1577.93 -141.91 -1487.59 -94.27 -1365.6 -56.44 -1243.7 -27.63 -1156.68 -6.62 -1127.9 8.45 -1169.19 17.3 -1273.78 22.98 -1417.91 27.22 -1566.5 28.26 -1681.38 30.02 -1733.22 33.6 -1707.92 36.06 -1614.31 41.52 -1478.05 50.48 -1338.78 59.3 -1239.63 72.02 -1209.72 88.77 -1260.62 105.62 -1379.56 126.49 -1532.65 151.38 -1674.83 176.32 -1763.29 205.17 -1770.58 237.97 -1693.24 270.77 -1555.89 307.13 -1401.32 346.98 -1276.83 386.88 -1219.56 430.36 -1245.14 477.39 -1343.62 524.54 -1485.58 575.24 -1626.35 629.33 -1724.1 683.28 -1751.39 740.23 -1698.91 799.63 -1581.69 857.91 -1431.2 917.46 -1287.79 977.14 -1188.09 1033.63 -1156.04 1088.08 -1196.58 1138.74 -1294.91 1183.17 -1424.17 1221.05 -1546.72 1250.45 -1629.78 1270.85 -1652.51 1280.75 -1606.76 1279.17 -1503.02 1268.52 -1363.54 1247.26 -1219.2 1216.63 -1099.98 1182.3 -1028.43 1144.04 -1016.47 1105.77 -1061.3 1074.84 -1150.55 1052.67 -1259.72 1044.17 -1362.75 1054.46 -1438.38 1084.84 -1467.44 1137.21 -1443.42 1210 -1369.41 1301.26 -1257.32 1406.42 -1125.84 1516.39 -993.86 1625.03 -882.09 1723.01 -804.75 1800.26 -769.67 1850.92 -777.83 1869.46 -822.37 1855.69 -894.32 1811.45 -977.05 1743.23 -1055.35 1664.58 -1118.52 1585.96 -1153.54 1521.79 -1155.1 1487.07 -1122.56 1489.26 -1058.14 1533.48 -969.06 1617.2 -862.28 1731.91 -749.19 1863.25 -639.49 1991.16 -539.36 2097.92 -457.31 2166.29 -396.87 2185.79 -359.31 2154.19 -344.43 2078.28 -349.03 1976.73 -371.22 1869.78 -404.39 1782.19 -443.06 1737.37 -485.7 1747.22 -524.6 1814.91 -556.16 1929.79 -580.75 2071.01 -593.43 2210.36 -593.72 2318.02 -583.13 2371.69 -560.53 2359.4 -527.55 2286.48 -485.34 2170.61 -435.69 2041.71 -380.8 1936.05 -320.43 1881.21 -257.9 1895.09 -194.96 1977.75 -129.83 2110.43 -66.32 2260.78 -5.34 2389.94 55.89 2464.47 113.74 2463.91 167.91 2389.7 221.69 2261.84 271.72 2116.8 318.06 1998.62 364.04 1941.08 406.58 1963.01 445.76 2059.89 484.84 2203.93 520.78 2352.87 553.58Q2352.87 553.58 2352.87 553.58" opacity="0.53"></path><path d="M2259.8 169.27C2366.19 200.51 2407.09 229.45 2372.44 256.27 2272.38 283.25 2133.41 308.45 1992.06 332.28 1884.16 356.83 1836.26 380.75 1858.26 404.73 1943.57 430.4 2067.64 457.29 2197.71 486.35 2302.27 518.4 2353.38 554.03 2338.7 594.24 2261.47 638.68 2138.68 688.84 1997.83 745.36 1868.47 806.31 1777.8 873.57 1742.37 946.76 1767.15 1022.23 1842.68 1101.37 1949.16 1182.27 2063.62 1260.13 2158.26 1335 2212.54 1403.68 2215.52 1461.86 2164.35 1508.3 2068.32 1540 1943.13 1555.75 1810.57 1554.31 1691.96 1535.45 1604.18 1503.25 1559.47 1458.47 1560.64 1405.39 1604.54 1352.78 1678.93 1303.96 1768.02 1266.03 1857.47 1247.35 1928.95 1251.04 1970.46 1281.14 1975.99 1338.27 1942.31 1420.44 1873.72 1522.93 1777.22 1635.86 1664.54 1750.83 1548.1 1856.3 1437.83 1939.94 1345.41 1993.87 1277.58 2011.42 1237.76 1992.24 1226.8 1939.19 1241.33 1860.77 1278.15 1772.85 1328.76 1688.66 1385.28 1624.64 1443.33 1596.25 1493.24 1610.56 1529.8 1670.28 1551.42 1769.06 1553.63 1894.27 1536.49 2027.36 1501.21 2145.96 1449.45 2231.48 1384.71 2268.8 1308.77 2252.66 1226.7 2186.83 1142.32 2085.33 1056.2 1972.76 973.55 1872.68 896.49 1809.54 824.24 1801.49 760.12 1852.91 704.3 1956.79 655.51 2092.67 614.68 2233.09 580.74 2347.61 552.99 2410.73 530.37 2408.63 511.46 2341.86 496.7 2228.97 483.72 2097.25 471.32 1981.1 461.14 1913.29 450.1 1912 437.38 1980.58 425.61 2103.42 411.34 2250.06 394.1 2382.67 377.17 2466.16 356.91 2477.96 333.09 2414.01 309.32 2292.87 281.87 2146.7 250.63 2016.65 219.4 1941.16 184.74 1940.58 146.8 2013.53 108.93 2139.94 67.9 2282.74 23.98 2402.34 -19.62 2467.53 -65.75 2459.52 -113.9 2380.99 -161.1 2252.23 -209.49 2106.04 -258.22 1978.67 -304.73 1900.25 -350.15 1888.07 -393.22 1941.74 -432.14 2046.69 -466.8 2173.53 -495.72 2289.77 -518.46 2368.14 -533.71 2387.62 -540.36 2343.46 -539.98 2244.64 -530.67 2111.87 -512.56 1972.68 -489.64 1853.69 -460.45 1777.73 -427.08 1756.35 -395.45 1790.78 -365.43 1869.32 -340.78 1972.29 -327.34 2078.84 -326.12 2163.96 -340.59 2210.24 -373.21 2208.88 -424.39 2157.75 -494.16 2065.29 -578.87 1944.81 -676.1 1815.37 -780.6 1695.6 -883.59 1600.24 -979.79 1541.46 -1061.31 1523.37 -1120.54 1545.27 -1153.37 1598.94 -1156.41 1672.41 -1131.43 1754.89 -1080.94 1830.13 -1011.61 1886.48 -936.12 1917.28 -863.4 1915.66 -805.85 1881.64 -776.21 1817.99 -780.47 1730.96 -822.89 1629.16 -901.29 1519.49 -1008.6 1412.64 -1132.8 1316.23 -1256.63 1234.62 -1364.68 1173.42 -1441.11 1133.86 -1474.8 1115.98 -1461.49 1117.59 -1403.94 1134.75 -1315.56 1165.63 -1212.07 1203.41 -1114.75 1243.21 -1046.58 1284.09 -1022.07 1319.21 -1050.47 1345.85 -1130.18 1364.75 -1248.99 1371.92 -1386.35 1367.37 -1515.73 1352.58 -1612.87 1326.94 -1657.96 1292.13 -1642.83 1249.05 -1571.14 1199.59 -1459.41 1145.75 -1336.19 1087.12 -1229.67 1026.86 -1167.32 966.5 -1167.52 904.25 -1232.12 843.67 -1348.73 785.57 -1490.86 727.24 -1625.55 672.14 -1720.02 620.52 -1751.17 569.23 -1710.96 521.49 -1609.24 477.25 -1474.07 433.32 -1339.77 392.69 -1242.84 355.27 -1211.32 317.95 -1253.8 283.66 -1360.19 252.42 -1502.13 221.18 -1639.22 193.36 -1734.49 168.98 -1763.8 144.7 -1718.63 124.04 -1611.67 107.12 -1470.64 90.51 -1331.56 77.85 -1228.76 69.22 -1186.61 60.92 -1213.34 56.59 -1299.4 56 -1423.02 55.18 -1550.7 57.37 -1650.41 61.79 -1698.94 64.32 -1682.81 67.31 -1605.69 69.27 -1483.99 66.43 -1343.94 59.81 -1214.71 47.45 -1121.34 26.82 -1081.2 -2.34 -1098.63 -41.68 -1167.58 -91.26 -1269.23 -151.89 -1379.73 -223.54 -1476.82 -302.93 -1537.6 -390.09 -1549.54 -482.27 -1509.76 -573.35 -1423.83 -661.68 -1306.44 -742.32 -1175.29 -809.24 -1051.72 -859.83 -953.38 -890.1 -892.39 -898.7 -875.15 -884.83 -899.48 -849.68 -959.15 -799.73 -1039.84 -738.47 -1126.06 -673.5 -1233.57 -594.78 -1254.63 -581.33 -1156.25 -673.21 -1057.17 -770.5 -945.85 -885.71 -833.26 -1007.14 -727.56 -1119.57 -638.89 -1211.18 -572.67 -1269.97 -531.52 -1288.78 -516.21 -1265.84 -523.86 -1205.23 -552.08 -1120.22 -593.72 -1024.43 -642.21 -936.47 -694.45 -876.54 -741.8 -856.8 -779.61 -885.66 -806.89 -962.16 -818.68 -1076.34 -814.4 -1210.76 -795.04 -1341.59 -760.58 -1446.8 -713.4 -1506.66 -654.72 -1510.71 -587.95 -1458.94 -516.14 -1362.85 -439.38 -1246.56 -362.21 -1135.4 -286.74 -1056.87 -211.73 -1033.01 -141.12 -1071.45 -75.68 -1167.44 -13.4 -1301.3 43.07 -1444.42 94.07 -1564.25 141.47 -1632.81 184.07 -1634.14 222.66 -1567.79 258.46 -1452.48 291.4 -1316.91 322.34 -1197.31 351.6 -1127.92 379.93 -1127.57 408 -1198.92 435.32 -1324.69 463.13 -1472.16 491.85 -1601.71 520.38 -1677.8 550.19 -1678.83 581.43 -1603.36 612.67 -1473.32 644.96 -1325.57 678.13 -1201.29 711.12 -1134.19 744.6 -1141.3 778.12 -1218.59 810.9 -1345.02 842.97 -1483.97 873.63 -1597.66 902.61 -1657.11 929.1 -1645.21 952.21 -1565.36 972.54 -1437.17 988.33 -1291.96 998.76 -1164.17 1005.6 -1082.52 1006.38 -1064.13 1000.79 -1109.61 992.01 -1206.49 977.49 -1327.92 957.93 -1443.5 937.9 -1527.1 915.54 -1556.91 892.92 -1525.98 875.23 -1439.95 861.93 -1315.7 856 -1177.71 861.57 -1050.78 879.16 -958.28 911.09 -914.27 958.1 -923.71 1020.43 -980.16 1097.48 -1068.52 1185.04 -1171.38 1281.36 -1265.19 1381.75 -1331.45 1478.39 -1358.66 1567.34 -1339.32 1642.03 -1276.2 1696.13 -1177.43 1726.42 -1057.41 1729.97 -932.61 1708.45 -817.29 1663.57 -726.3 1600.72 -668.15 1531 -646.75 1461.6 -660.7 1403.46 -703.39 1368.73 -767.92 1363.29 -840.97 1392.54 -911.04 1456.66 -970.67 1551.18 -1009.06 1667.29 -1021.49 1790.4 -1006.9 1906.92 -965 2001.34 -899.88 2060.42 -815.49 2076.82 -719.35 2048.36 -618.6 1982.55 -517.37 1890.38 -423.62 1789.47 -341.66 1702.3 -273.04 1645.44 -221.05 1633.53 -185.49 1673.33 -165.89 1760.77 -160.29 1883.28 -165.71 2019.21 -181.64 2145.03 -203.05 2236.88 -226.76 2277.2 -253.53 2258.68 -277.86 2185.62 -297.89 2076.69 -315.64 1955.62 -326.81 1851.54 -331.09 1792.06 -330.94 1792.2 -323.83 1855.61 -310.44 1970.2 -292.82 2111.37 -270.05 2247.04 -243.2 2345.16 -213.35 2382.51 -180.8 2349.52 -146.55 2255.87 -110.62 2124.48 -74.13 1989.63 -37.83 1888.85 -0.82 1848.36 35.27 1880.79 69.98 1979.19 104.87 2117.86 138.03 2259.8 169.27Q2259.8 169.27 2259.8 169.27" opacity="0.16"></path><path d="M2171.91 241.59C2273.34 271.26 2316.04 303.74 2290.48 339 2203.71 374.36 2076.52 412.69 1939.3 454.08 1823.56 495.78 1755.37 540.78 1748.53 589.13 1803.57 637.9 1905.24 690.05 2028.67 745.43 2146.77 800.82 2230.93 858.91 2262.6 919.04 2235.24 977.85 2153.47 1037.26 2034.13 1096 1900.08 1150.9 1777.44 1202.69 1688.37 1249.58 1647.66 1289.34 1660.2 1321.42 1719.86 1344.07 1814.03 1357.08 1920.95 1359.1 2018.83 1349.56 2090.27 1331.19 2119.56 1302.96 2101.24 1266.55 2037.65 1227.71 1938.16 1186.74 1818.1 1147.69 1693.69 1117.43 1583.13 1097.52 1500.23 1092.41 1453.77 1106.27 1447.3 1140.06 1477.43 1194.91 1538.05 1268.57 1616.07 1358.74 1698.04 1460.58 1773.46 1565.43 1828.66 1667.4 1855.97 1757.92 1852.26 1828.07 1816.03 1872.67 1751.32 1886.98 1663.4 1871.09 1561.32 1826.74 1454.41 1759.76 1349.61 1682.17 1256.46 1603.24 1180.69 1535.81 1125.32 1493.7 1092.88 1484.14 1082.3 1512.87 1092.44 1579.49 1118.57 1678.07 1155.59 1797.6 1201.19 1921.46 1247.78 2033.93 1290.71 2118.45 1328.98 2162.38 1356.68 2159.7 1372.06 2111.18 1375.79 2028.03 1365.74 1924.71 1342.91 1821.72 1308.51 1742.29 1263.83 1702.29 1211.16 1713.18 1150.98 1776.5 1086.56 1882.89 1020.05 2014.4 950.64 2146.05 882.11 2253.4 815.78 2314.87 749.75 2318.63 687.41 2264.11 629.14 2163.29 572.59 2040.9 520.35 1923.74 472.19 1840.12 425.86 1812.31 383.11 1847.83 343.47 1941.04 305.12 2071.68 269.17 2210.29 235.14 2324.24 201.76 2386.22 169.69 2380.87 138.61 2308.71 107.71 2188.69 77.47 2049.56 47.79 1926.78 18.12 1853.36 -10.63 1847.17 -38.35 1908.39 -65.89 2021.82 -92.04 2157.08 -116.46 2280.08 -140.24 2361.86 -161.67 2381.19 -180.24 2333.97 -197.52 2231.45 -211.24 2097.22 -220.88 1961.75 -228.68 1854.33 -231.91 1797.66 -230.31 1801.57 -226.98 1863.55 -219.05 1966.54 -206.86 2085.69 -186.74 2232.84 -142.36 2217.4 -127.44 2056.02 -126.2 1923 -132.31 1800.37 -148.02 1708.44 -175.3 1660.89 -214.69 1663.11 -267.15 1710.46 -331.26 1792.85 -406.98 1891.38 -492.52 1986.63 -582.72 2062.88 -675.83 2104.14 -767.17 2103.28 -849.94 2059.84 -921.01 1978.99 -975.29 1872.09 -1008.85 1751.71 -1019.73 1634.01 -1006.82 1532.47 -973.5 1456.69 -921.96 1414.02 -857.88 1405.56 -791.68 1429.69 -729.43 1478.96 -680.41 1543.85 -654.59 1616.77 -656.33 1684.92 -689.62 1739.38 -753.94 1775.34 -845.18 1786.2 -955.64 1770.85 -1072.66 1730.41 -1184.72 1667.7 -1278.34 1588.07 -1341.49 1495.63 -1366.99 1398.11 -1351.43 1301.67 -1299.43 1209.43 -1218.7 1127.79 -1123 1059.56 -1031.67 1005.49 -959.79 967.29 -922.67 943.98 -930.83 934.96 -985.45 937.57 -1081.03 948.89 -1203.06 968.71 -1332.95 992.1 -1448.87 1016.34 -1530.29 1042.43 -1563.37 1065.37 -1541.94 1083.7 -1472.15 1099.48 -1367.55 1108.88 -1250.24 1111.76 -1147.66 1110.47 -1081.34 1102.76 -1068.12 1089.31 -1113.92 1072.01 -1210.9 1050.03 -1340.45 1024.36 -1475.33 995.98 -1587.09 965.17 -1650.83 932.8 -1652.69 898.92 -1591.8 864.52 -1481.93 830.29 -1350.58 795.4 -1227.83 761.33 -1144.04 728.51 -1121.45 695.53 -1165.65 664.12 -1267.08 634.44 -1401.31 604.76 -1533.61 577.18 -1631.68 551.54 -1673.08 525.75 -1647.09 501.58 -1560.68 478.67 -1434.28 455.1 -1297.14 432.12 -1180.21 409.08 -1108.79 384.52 -1097.31 358.88 -1145.74 331.29 -1242.48 300.99 -1363.06 267.49 -1479.58 229.86 -1567.53 188.37 -1605.83 141.67 -1586.42 89.12 -1512.94 32.4 -1399.33 -30.27 -1267.57 -98.71 -1141.21 -169.71 -1043.28 -244.72 -989.4 -322.24 -986.94 -397.91 -1032.7 -472.09 -1114.61 -542.03 -1217.01 -603.47 -1317.52 -655.52 -1396.9 -695.23 -1441.82 -720.65 -1442.07 -730.48 -1397.33 -723.68 -1313.51 -702.72 -1202.75 -667.62 -1080.79 -621.12 -962.54 -570.41 -863.93 -517.85 -795.62 -469.54 -763.57 -434.05 -768.66 -414.64 -805.92 -416.66 -868.92 -443.77 -944.84 -496.22 -1021.5 -572.9 -1090.06 -668.06 -1138.53 -776.03 -1160.7 -887.85 -1154.36 -991.64 -1118.36 -1078.88 -1056.44 -1140.02 -973.02 -1168.58 -876 -1161.96 -773.41 -1121.23 -670.84 -1054.74 -576.95 -971.08 -496.95 -883.71 -433.42 -809.81 -389.53 -760.92 -365.01 -748.38 -359.34 -778.41 -369.46 -849.49 -391.57 -954.46 -424.29 -1078.43 -461.38 -1204.57 -498.84 -1313.44 -536.34 -1387.27 -567.98 -1414.82 -591.68 -1391.43 -608.44 -1323.66 -614.79 -1224.01 -610.8 -1112.73 -597.95 -1015.31 -575.54 -951.44 -544.95 -937.33 -507.07 -979.53 -463.3 -1071.97 -415.35 -1198.66 -362.89 -1334.56 -308.55 -1453.01 -253.69 -1529.14 -196.77 -1547.2 -140.91 -1503.36 -86.91 -1407.39 -32.34 -1283.39 19.58 -1159.24 68.52 -1065.41 117.42 -1026.87 163.13 -1053.48 205.6 -1141.12 247.91 -1269.98 287.04 -1409.68 322.98 -1526.09 358.87 -1590.31 391.68 -1585.65 421.36 -1512.24 451.03 -1389.47 477.23 -1248.84 499.96 -1125.84 522.63 -1050.69 541.72 -1040.87 557.22 -1096.97 572.56 -1205.03 584.23 -1336.34 592.26 -1458.3 600.23 -1542.82 604.77 -1568.26 606.17 -1529.01 608.14 -1433.96 607.75 -1303.99 605.77 -1167.46 605.89 -1017.5 617.95 -1058.87 637.48 -1215.89 659.57 -1328.11 689.22 -1413.97 727.79 -1455.55 775.23 -1444.7 832.36 -1381.74 899.24 -1278.17 973.05 -1151.03 1054.13 -1022.39 1140.35 -912.75 1226.54 -837.76 1311.65 -807.45 1391.65 -822.65 1461.03 -878.44 1517.68 -961.08 1557.75 -1054.04 1578.97 -1142.67 1580.05 -1209.28 1560.66 -1242.91 1524.79 -1238.63 1474.23 -1195.04 1414.13 -1117.89 1353.99 -1015.43 1298.57 -900.46 1255.87 -785.86 1234.65 -681.87 1238.47 -599.55 1271.01 -544.76 1332.07 -520.16 1418.51 -524.93 1524.07 -554.36 1637.74 -604.15 1749.7 -664.52 1847.75 -726.9 1920.06 -786.29 1959.2 -833.15 1960.17 -862.67 1924.87 -873.39 1858.24 -862.24 1770.9 -830.37 1679.83 -779.52 1598.9 -713.1 1543.79 -635.56 1527.76 -549.25 1555.62 -460.26 1627 -372.69 1732.84 -287.56 1858.67 -209.88 1985.22 -141.4 2091.29 -81.73 2160.04 -32.96 2179.33 5.45 2147.22 34.23 2069.84 54.22 1962.77 67.14 1850.29 72.93 1754.71 74.41 1697.96 73.36 1695.28 68.46 1749.04 63.46 1851.11 59.59 1981.76 54.4 2115.16 51.79 2223.36 52.36 2283.26 52.95 2281.88 57.26 2219.18 65.41 2110.95 73.98 1981.12 86.36 1860.58 102.46 1780.03 118.88 1758.46 138.77 1802.82 162.03 1903.83 185.38 2037.64 211.9 2171.87 241.58Q2171.91 241.59 2171.91 241.59" opacity="0.35"></path><path d="M2081.41 626.78C2178.78 654.9 2224.14 684.8 2208.35 716.33 2135.72 747.73 2021.85 780.47 1891.4 814.19 1771.35 847.34 1686.26 880.88 1652.24 914.22 1675.28 946.21 1748.33 977.08 1854.61 1006 1973.05 1032.49 2077.56 1055.87 2147.14 1075.22 2168.98 1090.99 2137.46 1101.64 2058.63 1106.4 1946.15 1107.01 1819.91 1101.34 1701.3 1089.28 1608.92 1074.01 1557.05 1053.46 1551.49 1028.62 1591.21 1003.94 1666 978.12 1760.67 953.4 1859.76 934.6 1943.91 921.56 1998.96 917.13 2016.75 924.77 1992.62 945.04 1929.99 979.76 1836.51 1028.98 1724.66 1092.66 1608.6 1169.66 1500.83 1255.61 1414.27 1348.48 1356.91 1443.6 1332.9 1533.74 1342.02 1615.16 1379.44 1681.95 1439.6 1728.75 1511.3 1752.78 1584.13 1751.74 1650.79 1727.46 1700.61 1681.61 1727.87 1619.15 1730.36 1549.96 1706.09 1480.42 1657.42 1420.22 1587.54 1380.35 1502.37 1366.3 1408.51 1383.47 1310.53 1433.2 1216.24 1512.57 1130.8 1615.15 1056.79 1729.33 998.47 1843.67 956.82 1944.44 931.95 2018.51 922.92 2057.25 927.32 2055.3 944.29 2014.76 969.3 1941.56 998.93 1847.73 1032.95 1751.5 1065.91 1668.13 1095.34 1613.96 1122.19 1601.8 1142.11 1635.62 1154.3 1713.18 1160.41 1823.4 1158.08 1949.76 1147.86 2071.59 1131.23 2167.64 1107.81 2221.73 1078.78 2223.84 1044.79 2174.93 1006.93 2084.05 966.42 1969.38 922.84 1856.36 878.17 1767.34 833.4 1722.49 787.06 1733.78 741.68 1800.1 697.88 1909.77 653.45 2040.76 611.18 2166.37 571.42 2259.75 531.47 2300.82 494.28 2280.12 460.04 2201.54 425.76 2083.69 394.51 1951.85 366.39 1836.28 338.28 1765.12 313.64 1753.91 292.38 1803.97 271.09 1904.14 253.12 2030.01 238.31 2152.89 223.31 2246.82 211.22 2289.85 201.72 2273.15 191.6 2200.65 183.49 2087.19 176.8 1956.25 168.55 1833.46 160.66 1742.82 152.2 1700.37 140.65 1712.83 126.97 1774.89 109.95 1871.78 87.97 1984.65 60.93 2088.82 27.65 2163.8 -12.02 2196.19 -59.02 2178.24 -113.85 2113.11 -174.76 2011.09 -242.8 1889.02 -317.12 1766.25 -394.03 1660.35 -473.83 1586.92 -554.01 1554.42 -629.81 1565.36 -700.31 1614.37 -762.06 1690.48 -811.24 1781.7 -846.29 1870.52 -864.74 1942.56 -866.43 1988.14 -850.7 1998.35 -818.51 1971.63 -774.87 1910.7 -721.62 1822.45 -663.87 1717.19 -610.23 1604.76 -564.48 1497.84 -533.17 1406.21 -523.08 1336.45 -536.53 1294.04 -575.88 1279.72 -639.98 1292.63 -725.77 1327.64 -827.49 1378.07 -935.38 1439.13 -1041.22 1500.94 -1134.58 1556.48 -1225.88 1616.72 -1199.6 1617.05 -1092.97 1555.61 -1006.19 1493.31 -922.6 1419.73 -856.33 1339.16 -820.91 1253.41 -822.94 1168.11 -865.81 1086.51 -945.93 1009.1 -1054.08 939.95 -1176.04 880.14 -1293.59 829.09 -1390.14 788.15 -1450.47 756.55 -1465.51 733.68 -1433.1 718.41 -1358.99 709.1 -1258.66 706 -1149.5 706.34 -1052.89 708.55 -989.92 714.04 -973.05 719.3 -1008.28 723.25 -1091.25 728.32 -1207.9 730.84 -1337.19 730.3 -1495.62 727.71 -1503.34 704.12 -1349.77 683.15 -1224.88 667.73 -1115.22 649 -1045.4 627.06 -1032.42 605.03 -1079.21 579.95 -1176.58 551.84 -1303.45 523.72 -1430.14 492.9 -1528.78 459.4 -1579.18 425.81 -1569.63 389.38 -1502.91 350.04 -1393.39 310.43 -1263.92 267.71 -1140.99 221.82 -1048.69 175.59 -1004.55 126.16 -1015.29 73.7 -1077.76 21.21 -1176.81 -33.85 -1291.14 -90.96 -1399.07 -146.96 -1477.39 -203.76 -1511.04 -260.27 -1494.04 -313.48 -1428.3 -364.3 -1325.53 -411.1 -1202.43 -451.69 -1079.72 -485.74 -976.62 -511.6 -907.86 -528.72 -882.59 -535.9 -901.52 -532.33 -959.88 -519.99 -1044.51 -497.68 -1139.52 -466.44 -1230.43 -431 -1300.05 -391.18 -1337.32 -350.22 -1337.01 -314.43 -1297.39 -284.93 -1223.79 -265.95 -1124.45 -262.49 -1011.91 -275.8 -899.21 -308.22 -797.22 -359.88 -717.13 -429.92 -665.27 -515.9 -644.69 -611.65 -654.52 -712.89 -689.97 -812.52 -746.17 -901.52 -812.87 -974.25 -880.89 -1024.02 -944.16 -1046.55 -992.91 -1040.11 -1021.97 -1005.41 -1029.41 -948.84 -1012.71 -876.07 -973.48 -796.84 -914.02 -724.77 -838.83 -668.77 -753.29 -639.1 -660.86 -643.66 -568.44 -684.15 -480.72 -759.01 -399.74 -860.31 -330.25 -977.39 -273.83 -1095.82 -230.7 -1199.15 -201.56 -1274.32 -185.13 -1310.34 -180.91 -1302.92 -186.19 -1253.5 -198.42 -1170.48 -217.69 -1070.58 -239.59 -970.27 -261.89 -888.86 -285.76 -844.32 -306.78 -845.82 -323.72 -896.48 -338.66 -989.72 -348.07 -1110.97 -351.78 -1239.71 -349.45 -1390.83 -313.65 -1386.76 -283.15 -1235.57 -259.31 -1115.49 -232.98 -1011.58 -204.91 -947.31 -175.49 -938.83 -145.21 -988.76 -114.67 -1088.25 -83.52 -1216.68 -52.71 -1346.76 -22.59 -1449.76 7.66 -1502.65 36.93 -1492.89 65.04 -1421.74 93.16 -1306.19 119.79 -1172.92 145.05 -1052.24 170.47 -970.83 194.82 -945.91 218.44 -981.4 242.65 -1069.21 266.74 -1187.89 291.24 -1310.64 317.1 -1412.08 344.26 -1468.86 373.44 -1469.31 404.95 -1413.63 439.51 -1312.48 477.88 -1186.07 519.46 -1058 565.68 -952.47 617.02 -887.69 671.75 -873.91 731.62 -910.91 796.46 -988.69 863.3 -1092.24 933.64 -1199.15 1006.24 -1288.76 1077.26 -1345.73 1147.28 -1357.79 1214.03 -1322.77 1273.74 -1245.72 1325.86 -1138.37 1367.81 -1017.06 1397.54 -898.15 1413.9 -798.78 1415.55 -731.03 1403.93 -701.86 1378.51 -712.33 1340.87 -757.11 1296.48 -828.61 1246.65 -912.66 1196.03 -995.56 1135.23 -1090.45 1111.25 -1090.43 1168.61 -991.42 1236.24 -896.17 1322.71 -790.66 1422.83 -684.62 1527.7 -585.3 1630.37 -501.72 1721.63 -438.86 1814.13 -391.55 1806.18 -437.17 1711.54 -505.68 1630.12 -558.99 1547.86 -609.27 1477.8 -651.88 1433.46 -685.56 1422.1 -705.17 1448.98 -709.62 1513.46 -699.55 1609.24 -674.34 1725.22 -635.83 1845.31 -585.23 1953.94 -525.37 2035.17 -459.09 2076.99 -386.89 2073.49 -312.95 2025.35 -239.56 1942.86 -165.99 1839.62 -96.11 1734.79 -30.94 1650.28 31.01 1601.61 87.15 1600.47 137.55 1649.97 183.8 1742.93 224.71 1864.25 260.99 1991.97 293.69 2103.16 322.86 2176.5 349.39 2198.1 373.49 2163.54 396.12 2079.49 418.05 1964.81 438.65 1842.25 459.46 1738.28 481.07 1677.11 502.12 1671.75 524.53 1724.94 548.67 1826.39 572.67 1954.5 598.66 2081.37 626.77Q2081.41 626.78 2081.41 626.78" opacity="0.20"></path><path d="M1990.91 563.14C2084.06 589.7 2131.48 613.47 2124.6 634.45 2065.62 655.35 1965.84 673.29 1844.71 688.19 1724.67 702.81 1627.86 714.17 1571.05 722.15 1563.72 729.74 1605.3 733.86 1686.36 734.56 1792.41 735.07 1902.13 732.46 1995.48 727.1 2057.11 722.42 2074.8 715.96 2045.73 708.56 1974.51 703.66 1872.17 699.59 1754.69 697.73 1638.86 700.98 1541.84 708.76 1476.35 722.64 1450.09 744.27 1464.44 774 1514.31 812.91 1591.64 860.61 1681.9 917.73 1770.64 983.96 1846.16 1056.41 1895.5 1135.05 1911.79 1217.61 1892.99 1299.21 1840.26 1378.6 1759.97 1451.99 1660.13 1514.54 1552.14 1564.26 1447.06 1597.83 1353.73 1613.52 1281.23 1610.27 1234.46 1588.06 1215.72 1550.63 1224.1 1499.68 1255.56 1439.85 1306.25 1379.58 1367.52 1323.07 1431.65 1277.4 1493.74 1250.53 1544.96 1245.79 1580.42 1266.89 1598.21 1314.59 1594.98 1386.83 1571.2 1479.17 1528.29 1583 1468.94 1690.26 1397.21 1790.52 1315.71 1872.69 1230.09 1929.05 1144.65 1953.02 1061.14 1942.83 984.55 1899.78 917.09 1829.7 859.12 1744.64 812.79 1655.45 777.92 1576.17 754.11 1521.54 740.5 1500.15 735.41 1518.23 738.72 1575.94 747.51 1667.08 759.77 1780.36 776.36 1899.42 793.44 2007.83 809.56 2089.03 826.51 2130.53 840.57 2126.01 851.02 2076.12 860.3 1991.08 865.24 1884.81 865.8 1776.73 864.52 1688.69 858.99 1636.47 849.58 1631.67 838.51 1677.44 824.1 1766.59 806.84 1884.15 788.48 2008.66 767.91 2117.33 745.56 2189.19 722.68 2210.49 698.53 2176.47 673.4 2093.25 648.14 1978.53 622.17 1854.18 595.62 1745.78 569.07 1677.07 542.24 1661.44 515.06 1700.98 487.74 1787.84 459.8 1902.83 430.96 2022.33 401.59 2123.9 370.82 2186.2 338.24 2197.56 304.57 2156.42 268.46 2070.03 229.45 1954.64 188.8 1830.56 144.69 1719.81 96.81 1640.81 47.09 1605.91 -6.52 1619.13 -63.97 1675.63 -122.6 1765.06 -184.32 1869.15 -248.41 1968.97 -311.65 2048.62 -375.32 2092.8 -437.92 2094.33 -496.21 2052.87 -550.43 1973.88 -598.59 1869.03 -638.34 1752.05 -668.96 1639.36 -688.75 1545.17 -697.48 1479.97 -694.12 1450.66 -678.43 1457.94 -653.27 1499.12 -618.3 1565.17 -575.72 1644.9 -531.2 1728.44 -485.81 1801.91 -443.8 1855.5 -411.56 1883.54 -390.97 1880.71 -386.05 1847.35 -400.26 1786.33 -434.25 1703.58 -488.47 1607.12 -560.36 1503.98 -647.22 1403.98 -744.1 1314.59 -843.04 1240.69 -938.29 1187.49 -1022.08 1156.5 -1086.65 1148.01 -1127.27 1159.74 -1139.89 1187.8 -1124.48 1229.71 -1082.44 1278.58 -1018.63 1329.1 -943.09 1379.05 -863.71 1421.69 -791.51 1453.8 -738.87 1474.96 -712.83 1481.74 -719.73 1474.07 -761.72 1452.9 -835.76 1418.66 -934.98 1373.43 -1047.4 1318.23 -1160.32 1256.09 -1259.26 1189.59 -1330.73 1118.84 -1365.63 1047.74 -1358.83 978.15 -1312.8 909.13 -1234.16 844.1 -1135.59 783.8 -1035.37 726.7 -949.16 675.07 -892.92 628.73 -878.84 586.2 -910.36 548.49 -984.64 514.92 -1090.63 484.55 -1211.82 457.31 -1328.12 432.39 -1419.43 409.65 -1470.04 388.19 -1470.48 367.32 -1421.46 347.66 -1331.18 327.76 -1216.4 307.13 -1100.51 287.02 -1004.7 265.65 -948.38 242.71 -944.16 219.9 -992.93 195.28 -1086.08 168.73 -1205.59 142.17 -1326.33 114 -1424.5 84.37 -1482.26 54.86 -1487.6 24.13 -1440.17 -7.46 -1349.33 -38.55 -1232 -70 -1109.87 -101.26 -1004.41 -131.33 -933.98 -160.39 -909.54 -187.72 -934.36 -212.88 -1001.71 -235.28 -1097.84 -254.06 -1206.32 -269.65 -1305.98 -280.62 -1379.37 -286.27 -1414.94 -288.1 -1405.31 -284.14 -1352.14 -274.17 -1263.24 -260.99 -1151.94 -242.55 -1034.54 -219.55 -926.62 -195.97 -843.08 -170.32 -793.63 -144.41 -783.14 -122.74 -810.29 -104.84 -868.26 -93.24 -948.45 -91.61 -1036.41 -100.33 -1118.83 -121.45 -1185.61 -156.08 -1225.51 -204.48 -1233.34 -266.56 -1208.1 -339.6 -1151.68 -422.46 -1070.43 -511.91 -971.7 -601.91 -866.06 -689.54 -763.44 -769.44 -671.48 -835.49 -598.51 -884.45 -548.94 -912.39 -524.88 -917.84 -525.94 -900.27 -548.84 -861.17 -590.66 -806.58 -644 -740.55 -702.22 -670.52 -761.4 -607.17 -813.31 -556.67 -853.26 -527 -879.56 -524.99 -888.08 -552.62 -878.44 -610.18 -851.49 -693.3 -808.3 -795.38 -751.75 -906.56 -683.64 -1013.95 -608.3 -1106.68 -529.35 -1173.57 -447.96 -1206.55 -368.91 -1201.96 -294.61 -1160.44 -225.08 -1089.94 -163.53 -999.92 -110.54 -904.54 -65.45 -821.3 -29.21 -762.85 -0.99 -740.85 19.67 -761.83 33.9 -824.38 43.07 -921.28 46.85 -1038.35 47.7 -1158.58 46.93 -1263 43.19 -1334.49 39.59 -1361.56 37.07 -1339.31 33.39 -1272.97 31.85 -1173.69 32.94 -1059.86 35.87 -916.02 57.92 -897.51 77.28 -1038.72 91.45 -1163.48 108.79 -1282.44 129.25 -1371.97 149.76 -1414.19 173.29 -1399.93 199.84 -1331.23 226.4 -1222.84 255.66 -1097.15 287.59 -979.76 319.58 -893.87 354.34 -855.86 391.89 -871.88 429.6 -938.48 470.22 -1040.61 513.72 -1157.34 557.4 -1267.12 603.91 -1347.26 653.06 -1382.79 702.04 -1367.76 753.22 -1304.09 806.06 -1203.41 857.74 -1082.68 910.02 -962.58 961.93 -862.54 1010.88 -797.66 1057.7 -776.99 1101.04 -801.22 1139 -865.16 1171.36 -955.19 1196.71 -1054.79 1219.1 -1183.91 1206.65 -1229.78 1172.06 -1129.46 1141.36 -1026.49 1105.27 -912.59 1066.18 -801.83 1029.52 -706.05 995.8 -636.31 968.62 -598.46 952.99 -594.77 950.02 -622.52 962.56 -675.15 992.42 -745.88 1039.69 -822.68 1103.98 -895.15 1181.93 -956.14 1271.07 -996.15 1366.67 -1010.74 1461.32 -998.74 1550.3 -960.03 1626.91 -898.37 1684.62 -817.9 1719.65 -725.76 1728.7 -629.07 1712.24 -532.81 1671.52 -444.62 1610.91 -369.2 1539.65 -308.99 1464.47 -266.98 1395.27 -243.18 1343.55 -237.25 1315.73 -246.74 1318.15 -268.36 1353.62 -300.82 1420.21 -338.59 1512.69 -377.89 1620.8 -418.15 1733.48 -453.84 1837.34 -482.69 1943.91 -511.77 1920.59 -507.3 1800.64 -475.06 1702.7 -442.92 1609.78 -404.12 1538.14 -360.24 1502.23 -311.26 1508.73 -259.53 1559.28 -206.45 1647.65 -150.88 1761.15 -95.73 1882.28 -41.89 1991.05 12.62 2069.87 64.86 2104.94 114.43 2090.74 163.8 2029.34 210.2 1931.66 253.54 1817.31 296.49 1706.52 336.48 1620.93 373.58 1578.75 410.4 1588.06 444.55 1648.48 476.1 1749.32 507.57 1871.4 536.59 1990.91 563.14Q1990.91 563.14 1990.91 563.14" opacity="0.54"></path><path d="M1900.36 176.58C1989.14 201.57 2038.04 224.62 2039.18 245.84 1993.23 267.16 1907.93 286.87 1798.19 305.22 1682.13 324.01 1578.85 341.9 1504.53 359.34 1470.36 377.81 1480.45 396.55 1531.42 416.16 1615 437.68 1715.72 461.02 1816.85 486.92 1903.64 515.72 1961.01 548.06 1980.39 584.63 1959.31 624.83 1899.98 669.9 1810.95 720.18 1703.64 773.93 1592.55 832.61 1491.64 895.82 1412.38 960.72 1363.87 1028.4 1349.95 1097.5 1370.86 1164.47 1421.17 1229.56 1492.25 1290.57 1575.42 1344.2 1657.56 1389.79 1727.93 1425.06 1779.19 1448.46 1803.37 1458.95 1797.78 1455.56 1762.92 1439.84 1701.7 1411.48 1620.27 1372.06 1525.07 1326.6 1425.29 1276.34 1329.18 1225.45 1242.93 1180.71 1173.54 1144.48 1124.7 1121.49 1098.25 1116.57 1094.19 1131.16 1110.07 1166.92 1143.86 1223.03 1189.66 1297.5 1242.03 1386.44 1297.98 1482.78 1350.26 1580.85 1394.52 1672.85 1439.54 1778.67 1433.32 1828 1382.63 1763.57 1332.07 1694.24 1272.05 1614.09 1205.46 1533.45 1133.23 1465.04 1059.43 1417.06 986.47 1397.88 914.37 1412.79 846.67 1461.63 784.56 1540.81 727.28 1641.51 676.95 1752.74 633.52 1860.88 596.1 1951.57 565.16 2013.5 539.88 2037.94 519.85 2022.25 504.16 1968.47 491.73 1884.63 482.99 1785.44 476.06 1685.33 469.97 1601.04 466.04 1548.36 461.78 1535.98 456.52 1567.89 452.3 1640.62 446.33 1743.49 438.2 1860.63 430.46 1972.84 420.19 2061.8 407.16 2112.07 394.23 2115.22 378.41 2070.03 359.56 1983.9 340.74 1873.19 318.87 1756.52 293.87 1655.24 268.88 1589.18 241.07 1569.76 210.54 1599.52 180.02 1673.25 146.81 1776.2 111.06 1889.47 75.42 1994.24 37.37 2070.86 -2.82 2106.41 -42.62 2095.65 -84.2 2039.77 -127.11 1948.36 -168.98 1835.81 -211.44 1720.04 -253.77 1618.65 -293.95 1546.11 -332.83 1512.36 -369.44 1520.43 -402.35 1568.09 -431.52 1645.52 -455.85 1739.34 -474.92 1836.16 -487.82 1919.35 -493.71 1976.56 -493.59 2000.37 -486.03 1986.03 -470.96 1935.58 -451.05 1854.98 -424.99 1754.25 -393.91 1645.57 -361.99 1540.31 -328.63 1450.65 -296.2 1385.17 -269.42 1349.21 -248.58 1344.7 -236.53 1369.26 -236.74 1419.1 -249.84 1485.4 -277.51 1558.99 -320.03 1632.72 -377.11 1695.89 -447.58 1741.56 -527.6 1766.1 -614.91 1765.33 -705.15 1739.5 -791.81 1690.44 -871.15 1622.04 -937.69 1539.86 -986.33 1448.49 -1014.23 1355.34 -1018.95 1266.28 -1001.27 1184.92 -962.23 1116.65 -905.49 1063.91 -838.9 1027.72 -767.78 1008.66 -700.38 1005.33 -646.75 1016.91 -612.44 1039.8 -603.61 1070.62 -624.04 1108.4 -673.34 1147.8 -748.78 1185.75 -843.34 1222.18 -948.74 1252.42 -1054.2 1274.97 -1147.57 1290.72 -1219.2 1297 -1260.45 1293.96 -1266.87 1282.75 -1237.7 1262.92 -1176.76 1235.64 -1094.16 1201.59 -1000.37 1162.03 -909.3 1118.39 -836.51 1070.44 -792.37 1020.44 -785.39 969.6 -818.87 916.71 -889.26 864.46 -987.96 813.62 -1100.99 762.23 -1212.5 713.05 -1305.72 666.41 -1366.34 619.94 -1384.92 576.25 -1358.09 535.42 -1291.08 494.92 -1193.95 457.19 -1082.84 422.18 -978.04 387.39 -896.48 355.14 -853.03 325.36 -856.67 295.66 -906.84 268.3 -995.62 243.31 -1107.79 218.32 -1222.25 195.99 -1318.96 176.34 -1382.42 156.75 -1400.87 139.97 -1371.78 126.08 -1300.54 112.42 -1198.89 101.82 -1083.67 94.39 -972.95 87.29 -884.13 83.43 -830.11 82.77 -818.35 82.28 -848.87 84.75 -915.03 89.87 -1006.6 94.45 -1107.17 100.87 -1200.67 108.42 -1294.45 116.49 -1245.23 119.8 -1114.28 108.4 -1005.38 92.37 -897.12 69.42 -802.13 38.43 -730.31 -0.72 -689.15 -48.63 -681.12 -105.41 -705.67 -169 -756.93 -239.68 -826.51 -315.91 -906.43 -393.66 -984.47 -472.24 -1050.93 -548.54 -1099.4 -617.88 -1122.55 -678.63 -1117.97 -727.38 -1086.08 -761.21 -1029.21 -778.63 -952.76 -778.2 -862.14 -761.21 -765.55 -727.98 -670.4 -680.9 -582.08 -626.13 -507.41 -566.51 -450.18 -507.9 -403.68 -440.26 -432.5 -424.27 -490.76 -493.11 -539.46 -568.29 -588.55 -660.13 -633.97 -761.66 -674.54 -863.04 -705.21 -956.27 -724.24 -1032.13 -731.91 -1082.71 -726.3 -1103.32 -708.11 -1091.55 -678.3 -1050.25 -638 -983.84 -589.24 -900.87 -532.67 -814.48 -471.26 -735.09 -407.1 -674.82 -340.01 -644.7 -273.39 -649.71 -208.67 -691.84 -144.79 -767.36 -84.69 -867.85 -28.9 -980.91 24.06 -1090.97 72.22 -1183.59 115.75 -1245.35 156.05 -1267.53 192.15 -1246.8 224.61 -1186.15 254.36 -1096.66 281.31 -991.69 306.14 -888.79 329.11 -807.02 350.82 -759.64 371.87 -756.2 391.86 -799.08 411.89 -881.84 432.39 -991.56 452.43 -1109.77 473.39 -1216.46 495.55 -1292.69 517.6 -1324.95 541.07 -1306.8 566.06 -1240.74 591.05 -1139.46 617.27 -1021.52 644.58 -908.31 671.78 -819.68 699.84 -770.75 728.48 -768.96 756.67 -814.29 784.96 -897.1 812.9 -1001.98 839.78 -1111.8 865.62 -1206.17 889.78 -1269.25 912.08 -1291.52 931.84 -1268.35 948.36 -1203.76 962.16 -1107.57 971.88 -994.44 976.93 -881.15 977.09 -748.72 947.26 -712.83 918.57 -807.51 897.16 -897.34 873.31 -989.23 848.41 -1069.59 826.46 -1128.44 806.68 -1155.95 791.15 -1148.57 783.42 -1107.09 783.55 -1035.87 793.56 -943.27 815.17 -838.44 848.74 -733.16 894.92 -637.82 952.47 -560.27 1021 -507.55 1098.74 -482.49 1181.31 -485.71 1266.88 -514 1351.35 -561.82 1428.95 -624.31 1496.82 -692.03 1550.56 -757.21 1586.48 -814.99 1602.64 -857.48 1597.58 -880.84 1573.1 -883.85 1530.41 -864.9 1473.25 -825.7 1409.27 -768.41 1343.03 -697.15 1281.92 -616.66 1234.97 -530.01 1206.77 -443.27 1202.67 -360.64 1225.89 -284.05 1275.96 -217.83 1350.46 -163.6 1442.93 -121.69 1546.1 -93 1650.21 -76.6 1743.97 -72.07 1818.49 -77.22 1865.33 -89.82 1879.59 -109.79 1859.76 -133.25 1808.27 -158.01 1733.62 -184.91 1644.7 -209.83 1554.12 -231.42 1450.13 -258.73 1449.63 -281.57 1565.11 -276.54 1672.72 -267.77 1786.3 -254.29 1889.77 -236.82 1967.84 -216.45 2009.15 -193.08 2007.03 -167.47 1962.66 -139.95 1882.33 -111.14 1778.94 -81.68 1671.05 -51.18 1575.54 -20.75 1509.24 9.12 1485.1 39.45 1507.29 68.78 1573.25 96.81 1672.47 124.96 1788.19 151.59 1900.36 176.58Q1900.36 176.58 1900.36 176.58" opacity="0.28"></path><path d="M1809.87 232.17C1894.12 255.6 1943.87 281.16 1952.06 308.85 1918.3 336.61 1847.51 366.6 1750.72 398.91 1642.09 431.43 1537.44 466.45 1451.41 504.02 1395.53 541.95 1376.74 582.56 1396.18 625.83 1450.79 669.4 1530.99 715.5 1624.56 763.9 1719.5 812.07 1801.09 861.96 1858.32 912.99 1884.5 962.61 1875.14 1012.17 1831.62 1060.7 1759.04 1105.88 1665.95 1148.28 1563.17 1186.6 1461.29 1219.27 1371.66 1245.95 1302.95 1265.41 1261.04 1277.42 1248.9 1280.99 1265.54 1275.55 1308.32 1262.71 1369.99 1241.45 1442.36 1212.47 1518.56 1179.35 1588.24 1141.68 1643.96 1101.68 1681.24 1064.21 1694.84 1029.76 1683.62 1001.49 1648.53 983.81 1592.05 977.66 1518.95 985.52 1433.71 1009.11 1343.24 1048.55 1253.71 1103.7 1169.42 1172.04 1096.29 1251.63 1037.67 1338.77 995.37 1427.39 970.82 1513.58 963.31 1591.64 972.23 1655.44 994.5 1701.32 1026.8 1725.47 1067.67 1726.56 1111.78 1704.36 1155.61 1660.72 1198.29 1601.6 1234.93 1531.5 1263.49 1457.86 1289.21 1363.56 1272.38 1305.11 1232.02 1365.03 1193.82 1439.44 1148.94 1532.62 1099.08 1635.76 1044.26 1737.49 987.11 1827.69 929.08 1896.05 869.34 1934.66 810.75 1939.16 754.16 1908.79 698.11 1848.71 645.13 1765.94 595.49 1671.69 547.46 1580.74 502.98 1504.79 461.92 1455.66 422.62 1442.33 386.42 1467.27 352.96 1528.67 320.92 1618.92 291.08 1726.12 263.04 1835.39 235.9 1930.79 210.02 1998.52 185.08 2028.04 160.57 2015.15 136.58 1961.07 112.91 1873.75 89.34 1767.88 65.88 1659.03 42.45 1564.77 19.02 1501.53 -4.09 1478.89 -26.8 1499.62 -49.4 1560.56 -71.38 1650.7 -92.5 1755.31 -113.19 1859.17 -132.62 1944.95 -150.42 1999.8 -167.32 2016.41 -182.05 1991.6 -194.19 1929.39 -204.92 1838.59 -212.51 1731.97 -216.59 1624.13 -218.9 1528.81 -217.38 1458.37 -211.85 1420.73 -204.72 1419.7 -193.8 1453.43 -179.33 1515.54 -164.33 1597.94 -146.84 1687.55 -127.71 1772.09 -101.75 1864.26 -64.75 1858.59 -62.09 1760.59 -70.65 1668.67 -87.66 1568.33 -114.31 1469.31 -150.89 1379.69 -197.66 1307.85 -254.47 1258.88 -319.14 1235.54 -391.27 1238.01 -468.81 1263.56 -547.47 1309.2 -625.78 1367.79 -700.18 1432.44 -766 1498.34 -821.11 1557.08 -862.18 1603.3 -886.82 1634.37 -893.7 1646.07 -882.11 1637.69 -854.2 1609.96 -811.04 1564.31 -755.97 1504 -695.65 1431.62 -633.64 1352.13 -576.06 1269.9 -530.62 1187.3 -501.03 1109.43 -491.99 1039.19 -506.83 977.64 -545.67 927.54 -607.35 889.38 -687.46 863.1 -780.69 848.42 -879.57 843.95 -974.61 849.37 -1058.08 862.07 -1121.76 879.93 -1159.3 903.21 -1167.16 928.17 -1144.31 953.02 -1094.66 978.82 -1023.17 1001.9 -938.46 1021.27 -852.85 1038.6 -775.97 1050.97 -718.62 1058.21 -690.33 1062.15 -695.2 1060.89 -734.61 1054.82 -805.06 1045.49 -898.86 1031.99 -1004.95 1014.98 -1109.69 995.42 -1200 973.23 -1263.65 949.09 -1292.14 923.28 -1281.31 896.34 -1232.3 868.85 -1153.13 840.45 -1054.25 812.12 -950.25 784.29 -858.1 756.07 -790.81 728.74 -759.39 702.57 -769.93 676.31 -820.87 651.41 -905.12 627.98 -1009.96 604.55 -1117.87 582.88 -1212.19 562.86 -1279.72 542.75 -1309.38 524.11 -1297.25 506.7 -1245.71 488.89 -1162.17 471.92 -1059 455.39 -950.5 437.94 -851.87 420.3 -776.13 401.93 -732.79 381.88 -726.53 360.28 -756.51 336.47 -818.33 310.1 -901.5 280.65 -993.8 247.47 -1083.88 211.03 -1158.06 170.23 -1206.72 124.71 -1224.46 75.89 -1207.96 22.41 -1159.39 -35.51 -1084.03 -95.48 -990.36 -158.66 -888.66 -224.03 -788.62 -288.44 -700.8 -352.43 -633.07 -414.18 -590.68 -470.52 -576.38 -521.11 -589.29 -563.86 -627.15 -596.71 -683.45 -618.75 -750.81 -628.58 -823.26 -626.54 -891.19 -611.93 -947.64 -585.23 -988.52 -549.83 -1008.34 -506.16 -1005.51 -457.08 -980.39 -408.36 -934.34 -361.73 -871.07 -321.49 -794.07 -293.32 -709.18 -279.11 -621.84 -282.08 -535.71 -304.41 -456.64 -346.08 -388.2 -406.37 -332.23 -481.8 -291.26 -568.99 -265.55 -662.56 -255.05 -754.88 -258.28 -840.34 -272.97 -912.04 -298.32 -963.65 -330.2 -991.36 -365.62 -992.43 -404.17 -967.85 -441.15 -919.57 -474.36 -852.63 -504.24 -776.28 -527.15 -697.74 -542.28 -626.71 -550.68 -573.88 -550.51 -545.34 -542.17 -546.58 -526.71 -579.73 -504.06 -642.5 -475.3 -729.51 -440.9 -831.23 -402.12 -937.05 -360.18 -1034.68 -314.7 -1112.02 -267.73 -1159.99 -220.26 -1172.19 -171.07 -1147.78 -122.6 -1089.55 -75.45 -1005.4 -27.8 -908.73 17.86 -812.21 61.24 -730.45 104.54 -677.28 145.35 -660.42 183.58 -683.89 221.57 -745.58 257.03 -837.12 289.98 -945.62 322.76 -1054.86 353.15 -1148.51 381.19 -1211.81 409.17 -1234.9 434.89 -1213.47 458.32 -1150.24 481.75 -1055.99 502.61 -945.95 520.9 -837.74 546.92 -719.26 585.18 -728.77 597.04 -848.27 603.75 -950.67 607.52 -1049.91 608.41 -1131.13 609.21 -1183.5 607.33 -1198.34 603.06 -1173.86 599.28 -1113.58 593.76 -1025.43 587.09 -921.26 582.12 -813.79 577.21 -716.77 573.31 -641.46 572.95 -595.86 575.28 -584.13 581.49 -605.56 593.33 -656.74 610.77 -728.8 634.87 -811.47 666.11 -895.54 704.96 -968.73 751.83 -1022.25 805.43 -1050.85 866.25 -1049.91 933.45 -1019.67 1003.97 -962.88 1077.68 -884.98 1152.34 -793.46 1223.88 -695.43 1291.25 -600.09 1351.43 -514.9 1400.98 -445.2 1438.4 -396.12 1461.42 -369.54 1469.24 -366.01 1461.12 -383.43 1437.29 -418.02 1400.99 -466.86 1353.36 -523.07 1297.94 -580.98 1241.31 -637.41 1186.39 -685.57 1138.6 -721.77 1104.54 -744.78 1086.96 -751.38 1089.5 -741.46 1114.33 -715.79 1161.03 -675.45 1227.97 -622.93 1310.48 -559.82 1403.65 -489.89 1500.5 -416.31 1592.25 -340.2 1672.09 -265.8 1732.64 -195.36 1768.22 -129.06 1775.72 -69.89 1754.23 -18.58 1707.39 25.32 1639.57 60.79 1558.6 88.36 1475.96 108.46 1400.42 121.88 1342.23 129.81 1310.84 132.1 1310.55 130.81 1343.52 127.21 1407.4 120.27 1495.82 112.76 1599.12 105.66 1704.65 97.13 1800.02 90.19 1873 85.4 1914.15 80.37 1918 78.06 1883.69 78.68 1817 79.6 1726.34 83.56 1624.71 90.56 1528.4 97.93 1450.62 108.21 1403.72 121.32 1396.23 134.65 1429.39 150.62 1499.27 169.14 1595.93 187.73 1705.03 208.74 1809.87 232.17Q1809.87 232.17 1809.87 232.17" opacity="0.60"></path><path d="M1717.59 619.42C1797.61 641.29 1848.27 664.64 1863.27 689.37 1841.45 714.01 1785.47 739.87 1703.11 766.72 1604.93 793.23 1503.51 820.38 1411.37 847.82 1339.37 874.47 1295.78 900.87 1284.77 926.51 1307.19 950.72 1358.7 973.44 1431.88 994.08 1518.49 1012.47 1606.45 1027.95 1685.09 1039.89 1764.16 1051.22 1738.63 1046.28 1639.06 1029.08 1549.74 1013.36 1453.9 993.38 1360.41 969.73 1276.79 945.59 1210.5 919.69 1166.19 893.37 1146.48 870.16 1151.47 849.47 1178.73 833.15 1225.44 824.25 1285.01 822.84 1350.96 830.61 1418.5 849.03 1479.65 878.36 1529.05 919.13 1563.82 970.35 1579.7 1031.68 1575.65 1101.7 1552.18 1176.83 1510.41 1255.6 1453.35 1334.67 1383.73 1409.16 1306.26 1476.69 1225.39 1533.4 1143.96 1575.66 1067.02 1601.51 997.76 1609 937.76 1598.42 889.78 1569.97 854.56 1525.61 832.28 1470.51 822.57 1407.72 824.06 1342.78 836.3 1283.46 856.46 1233.99 882.25 1200.1 913.46 1187.17 946.19 1197.03 978.39 1230.92 1010.54 1287.38 1038.99 1363.03 1062.57 1452.48 1082.38 1547.75 1095.8 1641.43 1102.68 1724.95 1101.76 1810.46 1061.63 1803.69 1025.65 1713.54 996.35 1632.06 964.05 1545.15 929.63 1463.53 892.68 1398.83 854.73 1358.46 816.5 1348.72 776.87 1372.49 737.78 1427.66 699.71 1508.77 661.01 1606.4 623.82 1709.21 588.43 1804.49 552.83 1880.05 519.26 1926.22 487.9 1936.53 456.48 1909.98 427.36 1849.31 400.61 1762.37 373.87 1662.07 349.52 1561.14 327.65 1473.84 305.79 1413.61 286.66 1388.39 270.22 1400.96 253.77 1449.69 239.99 1526.62 228.81 1620.63 217.58 1719.88 208.87 1809.72 202.53 1878.26 195.97 1917.54 191.56 1921.63 189.03 1890.41 185.85 1827.97 184.07 1741.9 183.22 1642.76 180.96 1541.68 178.82 1450.48 176.1 1378.92 170.85 1334.07 163.89 1319.86 154.38 1336.16 140.97 1380.58 123.76 1445.99 101.93 1523.82 75.04 1606.22 42.59 1682.18 4.09 1743.3 -39.7 1784.15 -89.56 1799.16 -145.27 1787 -204.76 1748.86 -268.58 1687.92 -335.57 1609.81 -402.6 1520.37 -469.61 1427.56 -534.52 1338.56 -594.01 1258.91 -647.29 1194.71 -692.06 1149.36 -726.07 1124.75 -748.28 1121.08 -757.28 1136.54 -753.35 1169.39 -736.03 1214.66 -706.02 1267.52 -666.76 1325.02 -619.17 1380.57 -566.4 1429.84 -514.19 1470.94 -464.7 1499.29 -422.34 1513.26 -392.55 1512.84 -377.34 1497.09 -379.69 1467.23 -401.46 1424.45 -442.42 1371.03 -501.52 1309.66 -575.24 1241.63 -659.95 1170.71 -750.26 1099.5 -838.98 1028.62 -920.53 961.58 -988.4 899.9 -1036.82 843.41 -1062.16 794.27 -1061.96 752.7 -1037.15 718.21 -989.52 691.22 -923.7 671.03 -848 657.37 -769.08 649.17 -695.79 645.33 -619.82 647.97 -636.92 666.57 -734.97 677.73 -825.95 686.05 -925.3 692.71 -1022.33 697.26 -1136.4 703.03 -1177.09 700.82 -1093.42 692.48 -1007.69 685.69 -911.65 676.18 -817.8 664.04 -739.76 651.71 -687.05 636.91 -667.42 619.7 -684.61 602.43 -736.38 582.86 -816.4 561 -914.16 539.13 -1015.23 515.22 -1105.98 489.3 -1175.45 463.32 -1213.6 435.22 -1215.89 404.96 -1182.69 374.51 -1118.01 341.74 -1030.4 306.59 -930.53 271.15 -830.74 233.22 -742.75 192.84 -676.35 152.19 -638.69 109.18 -632.9 63.99 -659.07 18.96 -712.36 -27.78 -785.28 -75.78 -869.93 -122.66 -954.72 -169.81 -1029.69 -216.42 -1087.56 -260.32 -1120.58 -302.21 -1125.39 -340.99 -1101.78 -375.05 -1051.57 -404.28 -979.88 -427.55 -892.87 -444.29 -798.85 -453.73 -706.05 -455.15 -621.33 -449.49 -551.91 -435.73 -502.36 -414.08 -475.39 -387.23 -471.72 -354.46 -489.63 -317.29 -527.06 -279.78 -578.45 -241.98 -638.18 -206.47 -702.21 -177.62 -763.08 -156.11 -815.64 -144.62 -857.15 -146.04 -882.83 -160.95 -890.99 -190.51 -881.59 -234.48 -854.5 -292.17 -811.65 -361.93 -754.97 -439.86 -687.99 -523.38 -614.38 -608.15 -536.38 -688.28 -458.68 -760.11 -384.43 -818.79 -315.03 -860.07 -253.91 -881.5 -202.46 -881.21 -160.99 -860.19 -130.52 -819.55 -110.6 -762.68 -100.99 -696.45 -100.37 -625.61 -107.18 -557.33 -121.36 -500.39 -140.05 -459.79 -161.5 -441.14 -186.29 -448.48 -211.01 -482.14 -234.36 -540.78 -257.59 -619.69 -277.57 -712.57 -293.66 -811 -307.53 -904.86 -316.74 -985.41 -321.3 -1044.04 -322.88 -1074.56 -319.9 -1073.65 -312.78 -1041.16 -302.85 -981.94 -289.38 -902.14 -272.93 -811.48 -254.33 -722.75 -233.51 -646.12 -211.04 -592.11 -187.17 -569.31 -162.34 -580.82 -137.05 -626.5 -110.98 -701.44 -84.96 -796.65 -59.36 -900.23 -33.43 -998.56 -8.25 -1078.78 15.93 -1129.71 40.2 -1144.48 63.33 -1120.39 85.19 -1060.17 107.06 -972.88 127.41 -870.85 146.33 -768.36 165.33 -679.22 183.05 -615.26 199.71 -584.37 216.71 -590.34 232.97 -631.12 248.84 -700.26 265.49 -789.13 282.27 -884.5 299.63 -973.7 318.41 -1046.38 338.46 -1092.12 360.34 -1105.49 384.37 -1085.34 410.99 -1033.58 440.74 -956.55 473.29 -862.59 509.57 -762.4 549.96 -666.7 593.33 -584.73 640.91 -524.8 692.67 -491.76 746.66 -487.93 804.06 -511.84 864.22 -559.13 924.49 -624.85 985.65 -699.87 1046.34 -775.63 1103.69 -845.58 1157.77 -900.89 1206.78 -936.19 1248.41 -948.92 1282.07 -936.81 1306.17 -901.12 1319.95 -844.47 1322.61 -771.45 1313.65 -687.81 1294.73 -598.55 1265.53 -510.67 1227.41 -429.75 1184.45 -359.56 1137.4 -304.55 1089.41 -266.7 1045.8 -246.91 1008.16 -244.78 980.14 -258.38 965.96 -286.43 966.83 -324.6 984.71 -369.09 1020.14 -418.16 1072.37 -466.27 1139.7 -510.12 1218.08 -548.85 1304.04 -578.27 1392.39 -596.97 1476.43 -605.22 1551.39 -601.43 1611.59 -586.15 1652.26 -560.23 1670.57 -524.54 1664.77 -480.82 1636.38 -429.68 1587.3 -373.61 1522.1 -314.49 1448.8 -252.26 1373.44 -189.93 1304.22 -128.87 1250.33 -68.3 1217.04 -10.89 1209.46 42.72 1230.3 93.74 1278.45 140.26 1350.53 182.33 1439.72 221.11 1537.8 255.64 1634.79 286.36 1720.05 314.09 1784.73 338.7 1821.31 360.8 1825.93 380.65 1797.72 398.8 1739.75 415.83 1660.21 431.43 1567.85 446.63 1474.39 461.92 1393.19 476.43 1333.89 491.55 1305.01 507.63 1311.63 523.39 1353.05 540.43 1424.71 558.97 1517.65 577.44 1619.83 597.56 1717.59 619.42Q1717.59 619.42 1717.59 619.42" opacity="0.65"></path><path d="M1628.87 572.4C1728.44 601.82 1738.71 650.23 1648.87 668.95 1562.9 680.5 1468.84 689.67 1376.86 696.37 1296.33 702.77 1235.51 706.56 1199.99 707.72 1192.92 708.56 1213.83 706.77 1259.38 702.45 1325.07 698.08 1402.49 691.48 1483.2 682.96 1560.07 675.09 1624.03 666.04 1668.89 656.4 1691.19 648.67 1687.92 641.54 1659.64 635.9 1608.79 633.92 1539.67 634.94 1458.19 639.98 1370.2 650.5 1283.01 666.49 1202.96 688.8 1134.94 717.72 1083.69 753.66 1051.69 796.86 1040.17 846.17 1048.45 901.94 1074.22 963.42 1115.48 1028.03 1167.05 1095.63 1224.2 1164.37 1283.85 1230.82 1339.81 1294.16 1388.03 1351.88 1426.59 1400.94 1451.47 1440.1 1461.34 1467.3 1456.2 1481.39 1435.65 1481.55 1401.09 1467.46 1353.9 1441.02 1296.68 1402.71 1232.26 1354.73 1162.28 1301.94 1090.56 1246.33 1019.8 1192.06 951.03 1145.02 887.56 1107.71 830.88 1084.08 781.25 1077.88 740.33 1090.13 708.24 1121.75 684.78 1171.74 669.75 1237.92 662.23 1316.74 662.11 1402.46 667.7 1490.04 677.66 1573.09 692.4 1644.78 709.32 1700.09 727.22 1734.26 747.13 1744.69 766.2 1730.32 783.61 1692.24 800.94 1635.15 815.51 1563.5 826.97 1484.36 837.15 1407.2 843.82 1338.86 847.01 1287.12 848.53 1259.03 846.67 1257.61 841.7 1284.37 835.2 1337.68 825.98 1412.81 814.38 1502.68 801.66 1597.95 787.04 1688.99 770.87 1765.89 754.02 1820.12 736.05 1845.55 717.25 1838.87 698.13 1801.28 678.49 1736.28 658.53 1651.22 638.48 1557.12 618.26 1464.18 597.96 1383.77 577.65 1326.74 557.5 1299.55 537.44 1304.85 517.3 1342.12 497.1 1405.81 476.67 1487.81 455.92 1579.31 434.63 1668.43 412.54 1744.87 389.75 1800.99 365.74 1829.57 340.17 1827.8 313.47 1796.31 284.74 1738.19 253.65 1659.83 221.03 1568.94 185.66 1474.87 147.3 1386.74 107.28 1312.29 64.15 1258.34 17.93 1228.89 -29.55 1225.88 -79.75 1248.07 -132.27 1291.86 -184.87 1353.2 -238.69 1424.35 -292.89 1497.96 -345.07 1568.32 -395.83 1627.37 -443.9 1669.89 -487.2 1693.1 -525.65 1693.97 -557.88 1672.67 -582.69 1630.78 -599.49 1571.32 -607.33 1498.79 -606.53 1417.34 -596.38 1333.03 -576.95 1251.09 -550.47 1175.33 -516.62 1110.62 -476.91 1059.79 -435.21 1024.43 -391.95 1005.62 -349.83 1002.74 -313.27 1015.26 -283.29 1040.39 -262.72 1075.2 -254.77 1118.22 -260.2 1164.68 -280.38 1211.27 -315.56 1256.9 -365.11 1297.06 -427.64 1329.64 -499.84 1354.51 -579.09 1368.98 -661.33 1372.69 -741.06 1366.25 -814.51 1349.26 -876.91 1322.76 -923.83 1287.48 -952.51 1244.89 -960.65 1196.65 -948.29 1143.06 -915.94 1086.62 -866.03 1028.87 -804.09 969.46 -734.24 911.06 -662.76 854.68 -597.81 799.42 -544.4 747.54 -508.44 699.42 -495.04 653.91 -505.82 612.54 -541.31 575.2 -599.37 540.82 -675.67 510.17 -764 482.82 -856.17 458.07 -944.17 435.98 -1019.53 416.02 -1074.75 397.99 -1104.42 381.38 -1105.2 365.67 -1077.51 351.2 -1023.6 337.01 -949.02 322.7 -862.98 309.07 -773.92 294.85 -691.97 279.76 -627.66 264.96 -587.68 248.98 -577.29 231.66 -598.67 214.41 -649.4 195.67 -724.12 175.37 -814.36 155.06 -908.47 133.43 -995.46 110.58 -1066.37 87.8 -1112.27 63.93 -1128.31 39.19 -1113.43 14.73 -1068.97 -10.31 -1000.18 -35.62 -914.42 -60.26 -820.88 -84.71 -729.28 -108.53 -648.46 -131.11 -586.4 -152.45 -548.48 -172.02 -537.83 -189.65 -554.23 -204.79 -594.77 -216.88 -655.5 -226.37 -728.67 -232.18 -806.4 -233.84 -882.16 -232.54 -947.15 -226.8 -995.26 -216.47 -1022.96 -203.54 -1026.74 -186.42 -1006.49 -165.45 -963.95 -143.36 -902.4 -118.79 -826.92 -92.72 -742.52 -68.3 -655.92 -44.72 -573.13 -23.47 -498.78 -7.57 -437.99 3.18 -393.76 7.17 -367.84 2.38 -360.69 -11.37 -371.1 -35.13 -397.9 -69.03 -437.19 -113.13 -485.06 -167.05 -539.12 -228.68 -593.69 -297.31 -644.83 -370.79 -690.76 -445.24 -726.91 -518.95 -751.28 -588.58 -763.52 -650.01 -761.91 -701.13 -746.82 -738.97 -719.08 -761.42 -679.83 -767.27 -631.09 -755.9 -574.01 -729.04 -511.52 -687.63 -446.01 -634.46 -378.23 -575.11 -311.48 -512.66 -247.53 -452.36 -186.46 -400.97 -130.81 -361.91 -81.32 -339.67 -37.6 -338.01 -0.84 -357.77 29.15 -399.08 52.8 -459.71 70.3 -536.08 82.44 -622.96 89.25 -713.09 92.02 -799.97 91.74 -876.19 85.03 -953 63.67 -944.27 52.78 -860.48 45.08 -783.81 39.1 -700.32 35.18 -619.1 30.39 -525.73 33.51 -501.17 41.62 -580.97 48.12 -663.35 57.09 -757.46 68.45 -852.99 79.96 -939 93.74 -1005.74 109.73 -1045.05 125.77 -1052.4 143.94 -1026.26 164.24 -969.24 184.55 -888.84 206.75 -794.87 230.81 -698.74 254.93 -611.64 280.99 -543.6 309.03 -501.97 337.22 -491.26 367.52 -511.68 399.95 -559.95 432.65 -630.9 467.57 -715.03 504.72 -802.46 542.1 -884.5 581.65 -950.87 623.22 -994.52 664.74 -1011.62 707.95 -999.63 752.49 -960.09 796.25 -896.9 840.63 -816.22 884.98 -725.87 927.33 -633.53 968.51 -547.83 1007.63 -475.85 1043.1 -422.88 1075.08 -392.79 1102.56 -386.68 1124.71 -404.33 1141.04 -442.3 1150.72 -495.87 1154.06 -560.81 1150.16 -629.5 1138.78 -695.57 1121.63 -754.74 1097.81 -800.52 1068.04 -829.36 1035.39 -839.85 999.39 -830.24 961.81 -801.46 926.5 -755.25 893.65 -694.65 865.62 -623.63 845.93 -545.39 835.15 -465.12 835.27 -387.01 848.04 -313.71 873.67 -249.41 912.53 -196.36 963.51 -155.64 1025.64 -128.55 1096.88 -114.78 1173.34 -114.12 1252.57 -124.81 1330.62 -144.81 1402.46 -173.48 1465.04 -207.17 1514.42 -243.43 1547.42 -281.97 1562.15 -318.81 1557.37 -352.12 1534.28 -382.31 1493.9 -406.26 1439.2 -423.22 1376.06 -434.09 1308.36 -437.18 1242.07 -432.76 1184.7 -421.73 1140.48 -403.9 1114.46 -380.13 1110.74 -350.89 1130.23 -317.16 1172.82 -279.99 1235.81 -239.16 1314.85 -196.41 1403.81 -152.65 1494.73 -106.97 1580.24 -61.46 1652.42 -16.76 1704.42 28.59 1731.41 72.42 1730.43 114.39 1702.18 156.3 1648.89 196.04 1575.91 233.5 1492.14 270.63 1405.51 305.47 1325.69 338.03 1262.86 370.27 1223.4 400.36 1212.53 428.36 1232.59 456.18 1281.52 482.06 1354.47 506.04 1443.49 529.96 1538.63 552.09 1628.87 572.4Q1628.87 572.4 1628.87 572.4" opacity="0.83"></path><path d="M1538.41 183.73C1608.14 202.47 1656.94 219.68 1680.34 235.42 1676.82 251.22 1646.44 265.67 1592.54 278.92 1520.39 292.4 1436.84 304.93 1349.73 316.74 1266.64 329.1 1195.04 341.14 1140.81 353.2 1108.24 366.28 1099.4 379.92 1114.07 394.53 1150.88 410.78 1205.19 428.64 1271.54 448.59 1344.96 470.83 1417.72 495.78 1483.54 523.89 1538.04 554.75 1575.62 589.19 1593.5 627.44 1590.84 668.43 1567.26 713.19 1524.74 761.58 1466.08 811.87 1395.46 864.99 1317.71 920.34 1237.08 975.62 1159.06 1031.45 1088.09 1086.67 1027.35 1138.88 980.26 1188.12 948.5 1232.92 932.96 1271.35 933.32 1302.93 948.16 1326.34 976.45 1340.85 1014.69 1345.76 1059.69 1340.55 1109.74 1326.27 1160.12 1302.54 1207.72 1270.16 1251.36 1232.12 1287.13 1188.75 1313.34 1142.27 1329.81 1096.94 1334.73 1053.82 1328.16 1015.88 1310.73 987.14 1282.85 968.77 1245.9 963.08 1200.71 972.01 1149.31 995.78 1093.55 1034.5 1033.94 1086.76 973.17 1150.91 912.82 1224.2 852.87 1302.2 795.78 1381.51 742.47 1457.54 692.49 1525.08 647.51 1580.55 607.75 1620.08 572.59 1641.06 542.75 1642 517.86 1622.57 497.52 1585.12 481.48 1531.71 469.11 1466.5 460.44 1396.16 454.45 1325.4 450.45 1260.58 448.83 1191.39 450.84 1186.77 451.87 1257.9 453.1 1329.68 453.02 1413.08 451.34 1501.07 450 1585.63 446.78 1659.44 441.53 1715.46 436.38 1748.42 429.08 1754.93 419.54 1733.96 410.02 1688.09 398.24 1620.99 384.15 1539.16 370.06 1451.81 353.66 1366.88 334.92 1293.28 316.17 1239.63 295.31 1211.09 272.38 1210.07 249.45 1236.78 224.46 1287.53 197.47 1356.67 170.5 1437.95 141.56 1522.14 110.76 1600.83 80.06 1667.38 47.61 1714.44 13.61 1737.79 -20.05 1735.9 -55.01 1708.51 -90.93 1658.41 -126.06 1589.95 -161.64 1509.2 -197.23 1423.08 -231.25 1338.16 -264.5 1261.52 -296.35 1198.8 -325.61 1154.15 -352.51 1130.41 -376.32 1128.2 -396.43 1147.23 -412.47 1184.4 -423.78 1235.69 -430.54 1297.57 -431.92 1363.52 -427.54 1428.04 -418.55 1487.45 -403.91 1535.89 -383.78 1569.95 -360.33 1588.13 -332.62 1588.27 -301.55 1570.61 -270.09 1536.29 -237.71 1487.28 -205.97 1426.65 -178.09 1357.03 -154.05 1282.73 -135.68 1207.54 -125.55 1133.97 -123.95 1066.12 -132.23 1006.55 -151.38 956.64 -181.44 918.4 -222.48 892.31 -273.26 878.53 -333.01 876.44 -400.01 884.73 -470.99 902.96 -544.13 928.44 -616.32 959.06 -683.45 994.47 -743.19 1031.11 -792.32 1067.05 -828.01 1102.43 -848.57 1133.97 -852.54 1160.52 -840.3 1182.75 -812.05 1198.37 -769.45 1207.16 -716.62 1209.99 -656.04 1205.88 -592.12 1195.32 -531.1 1178.99 -476.47 1157.11 -433.06 1130.52 -405.8 1099.45 -396.72 1064.99 -407.8 1028.04 -439.41 988.22 -489.97 947.17 -556.65 905.63 -634.65 862.64 -718.8 820.11 -802.79 778.53 -879.72 736.5 -943.8 695.98 -989.53 657.24 -1013.14 618.58 -1012.39 581.93 -987.05 547.37 -940.06 513.1 -874.83 480.92 -797.23 450.82 -715.61 420.98 -636.68 393.12 -568.24 367.19 -518.04 341.41 -490.47 317.43 -488.82 295.23 -514.1 273.07 -563.85 252.6 -633.58 233.86 -716.55 215.11 -803.49 198.31 -885.69 183.45 -981.49 162.23 -1021.59 130.34 -959.54 120.04 -891.33 114.18 -810.39 110.7 -724.06 109.63 -639.5 108.83 -564.07 110.45 -503.74 114.4 -453.76 121.52 -497.77 144.64 -578.97 158.81 -647.27 167.08 -717.98 175.25 -785.07 182.59 -844.3 187.06 -889.74 189.44 -918.05 188.87 -927.83 183.81 -917.62 174.47 -888.39 160.02 -842.01 139.81 -781.56 113.6 -711.04 80.91 -634.01 42.27 -555.54 -2.72 -479.97 -53.83 -410.39 -109.26 -350.8 -169.2 -303.54 -232.45 -269.98 -296.27 -251.09 -360.27 -246.48 -422.49 -255.84 -479.94 -277.01 -531.7 -307.64 -575.65 -346.61 -609.66 -389.93 -632.72 -434.75 -643.52 -480.15 -642 -522.04 -627.74 -558.36 -601.2 -588.9 -565.01 -610.83 -519.93 -623.47 -468.49 -627.24 -415.43 -621.2 -362.63 -605.89 -313.86 -581.99 -274.07 -550.23 -245.25 -511.91 -230.44 -467.45 -232.29 -418.74 -251.26 -367.18 -287.57 -312.69 -339.77 -257.61 -405.65 -203.03 -481.77 -148.34 -563.01 -95.74 -644.95 -45.86 -722.09 2.26 -788.63 46.9 -840.32 87.94 -873.09 126.39 -884.63 161.16 -873.87 192.47 -841.41 221.16 -790.87 246.78 -725.63 269.72 -651.29 290.48 -575.75 309.15 -504.75 326.21 -445.22 341.67 -404.04 356.11 -384.73 369.95 -390.07 382.78 -420.64 395.52 -474.06 408.51 -546.1 420.94 -630.27 433.99 -719.07 447.89 -804.07 461.57 -876.92 476.33 -930.49 492.35 -959.08 508.3 -959.96 525.62 -932.38 544.36 -878.74 563.11 -805.15 583.05 -719.27 604.12 -630.05 625.12 -546.34 647.13 -476.42 669.96 -426.83 692.56 -402.15 715.76 -404.03 739.27 -431.49 762.24 -482 785.17 -549.43 807.68 -626.76 829.19 -707.52 849.78 -782.83 869.02 -845.69 894.51 -903.02 930.69 -866.69 939.28 -779.64 941.24 -702.63 939.36 -618.91 933.39 -534.83 924.84 -455.88 912.27 -387.96 895.8 -335.25 877.57 -300.57 856.2 -285.5 832.29 -289.75 808.48 -312.56 783.72 -350.59 759.09 -399.98 737.38 -457.87 718.05 -518.34 702.48 -576.82 693.04 -630.6 689.67 -674.56 693.64 -705.98 706.2 -723.85 727.51 -726.13 758.1 -712.94 797.55 -685.12 845.76 -643.99 902 -591.88 964.04 -530.57 1031.08 -463.47 1101.04 -393.58 1170.44 -322.54 1237.74 -254.01 1300.08 -190.25 1354.08 -132.15 1398.02 -82.14 1429.52 -41.05 1447.05 -9.01 1449.67 13.43 1436.96 26.8 1410.55 31.27 1371.15 28.08 1321.09 18.55 1265.04 2.64 1205.41 -17.21 1146.52 -39.56 1094.14 -64.92 1051.12 -90.43 1021.46 -114.94 1008.94 -139.5 1014.72 -161.41 1039.74 -180.04 1083.3 -196.79 1143.24 -209.47 1216.2 -217.98 1297.03 -223.75 1380.71 -225.3 1461.19 -222.9 1532.12 -217.74 1588.44 -209.05 1625.47 -197.28 1640.38 -183.24 1631.7 -166.74 1599.88 -148.29 1548.49 -128.2 1481.15 -106.8 1403.83 -84.54 1324.73 -61.24 1250.17 -37.62 1187.44 -14.04 1143.69 10.09 1122.68 33.81 1127.14 56.83 1157.55 80.09 1211.2 102.42 1283.44 123.64 1367.51 144.92 1455.39 164.98 1538.37 183.72Q1538.41 183.73 1538.41 183.73" opacity="0.21"></path><path d="M1447.91 223.06C1512.52 240.24 1559.87 258.94 1586.32 279.12 1590.42 299.35 1571.52 321.13 1531.53 344.52 1403.01 391.68 1245 445.92 1104.7 507.6 1020.44 570.5 1012.74 641.14 1077.35 718.73 1194.7 795.69 1325.68 876.58 1432.95 957.7 1491.44 1030.83 1482.74 1096.22 1410.62 1147.55 1290.22 1179.93 1147.64 1190.07 1010.88 1174.37 900.77 1138.12 835.1 1080.6 817.72 1008.8 846.61 939.96 908.13 880.53 985.39 845.24 1068.19 848.46 1136.18 894.04 1179.35 983.41 1196.05 1105.47 1180.75 1245.77 1137.68 1381.15 1070.78 1484.64 987.59 1537.7 896.36 1527.01 798.29 1457.95 703.44 1344.86 615.98 1217.18 532.67 1115.3 460.06 1066.73 397.77 1092 341.37 1190.22 293.3 1338.07 251.41 1495.81 212.93 1616.89 177.65 1664.95 143.78 1622.61 127.19 1571.24 110.6 1504.11 93.88 1426.73 77.22 1346.59 60.32 1269.66 43.14 1202.78 25.95 1152.69 8.7 1123.41 -8.57 1117.05 -25.78 1134.24 -42.9 1172.7 -59.78 1228.65 -92.84 1374.79 -123.5 1521.18 -149.83 1620.9 -172.75 1645.93 -188.33 1586.69 -194.27 1462.4 -194.33 1306.63 -182.75 1161.56 -158.99 1061.99 -131.08 1028.23 -94.3 1062.29 -52.65 1147.54 -17.84 1262.44 10.57 1371.97 24.5 1449.56 14.62 1481.26 -21.23 1456.81 -87.09 1382.93 -179.43 1271.04 -294.6 1140.94 -422.44 1012.24 -544.73 897.19 -649.15 810.8 -718.61 757.46 -741.8 737.51 -714.39 746.45 -640.07 775.44 -539.08 821.53 -429.81 871.04 -340.05 916.06 -298.59 958.19 -317.89 986.75 -401.56 1000.47 -534.02 1004.18 -687.37 993.74 -824.11 972 -908.12 942.55 -916.83 906.14 -845.83 866.03 -718.79 822.46 -570.9 778.73 -449.17 736.99 -412.58 715.82 -396.25 695.47 -402.07 676.1 -430.24 656.69 -478.46 638.35 -543.07 621.17 -618.82 603.99 -698.43 588.17 -775.18 573.65 -843.64 559.08 -897.37 545.72 -932.23 533.43 -937.94 508.23 -858.75 486.02 -720.71 464.78 -563.42 440.08 -431.39 412.84 -357.81 379.94 -358.66 339.35 -427.22 288.75 -538.74 225.49 -664.84 152.22 -767.1 65.6 -820.26 -32.95 -813.99 -134.39 -747.27 -238.68 -635.71 -337.73 -498.36 -419.68 -361.56 -479.76 -246.56 -508.98 -166.05 -504.8 -128.88 -465.6 -132.24 -395.59 -171.82 -311.93 -232.9 -224.72 -301.25 -153.4 -371 -120.09 -425.73 -133.91 -459.14 -201.38 -472.25 -314.76 -460.26 -457.58 -426.82 -603.13 -375.1 -719.04 -309.94 -781.1 -237.42 -772.52 -157.18 -698.14 -77.22 -575.45 -1.09 -439.07 75.7 -334.17 145.76 -291.34 208.26 -329.63 269.64 -442.61 323.74 -599.12 370.83 -752.05 394.19 -811.4 415.97 -852.42 436.19 -871.34 456.38 -866.7 475.07 -838.29 492.25 -788.2 509.43 -721.32 524.9 -643.52 538.65 -561.66 552.36 -482.56 564.29 -412.86 574.4 -358.09 594.23 -308.95 606.09 -346.9 609.51 -454.72 611.82 -599.2 605.41 -730.64 590.95 -809.47 577.17 -815.35 558.24 -744.4 537.55 -617.34 524.57 -464.47 517.48 -323.37 522.19 -223.66 545.17 -182.32 587.96 -202.09 654.02 -269.8 740.4 -369.39 846.27 -471.44 965.19 -552.92 1082.7 -601.72 1190.97 -604.41 1275.59 -562.59 1323.98 -482.26 1329.7 -375.64 1289.77 -257.64 1215.35 -136.67 1116.81 -28.01 1015.23 61.2 939.46 129.85 906.03 174.49 930.42 198.53 1014.23 203.62 1144.48 196.3 1295.78 182.72 1432.48 161.15 1523.42 141.29 1543.66 126.68 1489.47 111.43 1373.85 104.44 1229.82 106.35 1070.51 115.33 1114.88 157 1213.21 176.67 1291.68 190.42 1372.16 205.88 1447.91 223.06Q1447.91 223.06 1447.91 223.06" opacity="0.98"></path><path d="M1356.08 612.27C1461.95 643.51 1501.3 679.19 1465.79 718.53 1366.43 757.23 1228.87 798.28 1087.98 839.91 976.06 878.75 917.84 915.31 922.21 946.79 985.89 971.87 1088.41 988 1203.23 992.36 1307.83 987.38 1375.48 968.72 1393.39 936.16 1359.66 897.56 1279.33 850.13 1167.72 798.99 1040.13 756.18 917.22 723.03 814.44 708.07 740.57 719.9 702.39 760.5 698 832.15 724.82 929.38 772.31 1046.38 829.84 1171 893.74 1284.91 950.16 1375.24 992.89 1426.62 1023.03 1431.03 1033.65 1386.74 1025.88 1300.69 1002.88 1194.39 965.44 1086.63 917.87 1003.34 861.09 969.29 800.11 994.02 738.55 1078.12 673.65 1205.72 611.79 1350.43 554.76 1478.42 497.18 1557.91 445.58 1568.39 400.6 1505.01 355.65 1386.5 317.37 1241.97 286.13 1111.93 254.9 1036.46 231.44 1034.88 215.54 1104.46 199.67 1226.62 191.32 1364.11 189.98 1479.63 188.1 1546.34 192.1 1544.98 200.31 1477.76 205.2 1360.51 210.7 1220.11 213.35 1086.75 206.78 984.78 191.43 932.57 163.14 934.25 119.61 986.17 59.2 1071.09 -19.07 1168.22 -109.96 1262.29 -212.87 1330.92 -321.47 1363.24 -423.69 1356.67 -514.08 1310.32 -581.84 1232.56 -618.39 1131.02 -619.21 1019.37 -582.22 909.28 -516.33 805.81 -428.2 719.47 -333.14 653.28 -254.06 606.81 -204 580.34 -198.13 569.81 -243.9 574.28 -337.01 587.05 -464.51 603.15 -602.22 625.02 -725.08 644.07 -806.39 657.66 -828.39 671.5 -785.09 677.74 -685.22 675.93 -556.39 673.11 -428.02 662.59 -334.85 644.76 -305.51 626.49 -348.03 601.67 -453.9 570.44 -595.67 539.2 -731.46 502.28 -825.15 459.7 -855.16 416.68 -812.47 367.25 -709.86 311.15 -572.28 254.05 -432.62 189.94 -321.68 119.42 -261.13 49.16 -260.43 -25.36 -313.74 -101.37 -408.43 -171.6 -518.13 -237.17 -618.01 -292.93 -691.44 -333.69 -720.35 -357.02 -701.05 -358.69 -637.31 -340.65 -539.16 -300.8 -422.33 -242.03 -299.27 -176.64 -187.26 -107.89 -97.02 -47.28 -33.34 -10.47 -0.2 -3.11 5.52 -33.43 -14.06 -102.64 -49.92 -206.05 -93.74 -332.64 -144.52 -462.3 -190.6 -577.49 -227.28 -657.27 -257.53 -686.82 -273.94 -660.06 -276.92 -580.99 -270.72 -470.53 -253.17 -350.46 -227.06 -250.85 -194.75 -201.25 -157.69 -214.81 -118.56 -293.58 -76.75 -421.15 -35.64 -567.84 3.06 -696.18 42.37 -771.94 78.03 -773.52 109.27 -698.05 140.51 -568.01 166.59 -420.32 188.11 -295.63 210.26 -226.06 229.1 -227.35 246.21 -294.78 265.99 -410.72 286.79 -540.51 311.17 -650.48 341.73 -716.96 379.66 -721.35 427.6 -664.4 484.71 -558.21 553.91 -425 635.45 -290.84 723.43 -176.92 819.3 -102.35 918.23 -74.25 1010.2 -93.09 1092.56 -148.64 1156.84 -225.67 1195.81 -313.4 1205.56 -391.41 1182.82 -447.7 1133.52 -478.41 1060.51 -476.11 974.33 -443.24 894.39 -383.59 831.02 -303.94 799.81 -212.98 813.03 -113.7 872.22 -16.47 973.51 73.41 1101.26 157.27 1236.41 228.72 1354.01 287.83 1430.21 337.6 1449.85 376.96 1406.92 408.56 1313.62 433.75 1188.87 455.06 1063.35 475.13 972.79 492.41 939.29 511.32 975.49 533.47 1075.36 554.97 1214.31 581.03 1356.08 612.27Q1356.08 612.27 1356.08 612.27" opacity="0.63"></path><path d="M1266.9 581.33C1364.27 609.45 1408.82 632 1392.63 648.87 1320.94 665.36 1208.77 675.49 1079.95 678.85 958.68 681.21 867.79 676.29 821.57 664.21 826.18 651.73 876.37 633.28 958.85 610.58 1060.09 591.23 1157.58 572 1234.36 556.69 1281.19 552.16 1288.01 558.27 1255.46 579.28 1188.23 617.79 1095.42 674.85 989.22 750.85 878.33 840.46 775.96 941.73 690.16 1047.64 624.25 1146.37 582.46 1231.62 563.35 1293.02 565.85 1322.94 584.45 1317.36 613.28 1275.27 652.04 1205.62 691.54 1115.45 727.38 1019.43 762.37 938.53 788.69 884.98 805.34 872.51 816.86 908.36 818.59 989.15 811.76 1104.18 800.42 1233.23 782.65 1354.15 760.27 1442.8 735.54 1481.19 708.35 1460.32 680.06 1382.86 651.15 1267.65 622.35 1137.3 594.24 1021.75 566.12 950.6 539.36 938.58 513.51 985.84 487.04 1082.2 460.27 1202.69 431.97 1320.02 401.34 1412.29 367.02 1457.69 327.35 1448.58 283.17 1387.96 231.51 1286.95 171.26 1164.66 105.89 1039.91 32.06 933.49 -49.08 859.51 -131.09 825.65 -215.4 832.91 -297.49 874.57 -369.65 943.94 -430.1 1024.85 -472.82 1103.69 -493.94 1173.58 -490.76 1221.04 -461.7 1241.54 -412.74 1235.46 -345.46 1202.05 -267.78 1146.48 -194.77 1072.33 -133.27 987.37 -95.31 898.49 -92.03 806.89 -126.11 720.82 -198.01 643.46 -299.87 572.84 -420.26 513.43 -542.11 464.54 -645.2 423.59 -713.7 390.99 -734.17 364.43 -703.82 343.05 -626.36 324.51 -515.93 306.66 -397.96 291.06 -294.07 273.86 -227.94 253.73 -217.31 234.13 -264.71 210.53 -362.08 182.42 -488.95 154.3 -614.22 122.34 -710.62 87.18 -760.42 52.54 -751.63 15.79 -687.88 -21.63 -582.46 -56.8 -456.13 -90.34 -332.7 -119.97 -201.8 -153.08 -220.59 -163.41 -341.12 -133 -436.64 -101.8 -520.42 -60.55 -579.7 -12.28 -609.06 33.26 -601.98 76.37 -561.11 110.29 -491.16 125.63 -400.75 120.44 -300.14 89.67 -195.25 32.33 -97.29 -50.22 -12.43 -153.31 57.82 -265.35 109.1 -377.56 142.32 -476.2 158.54 -547.14 160.88 -581.64 153.61 -572.86 136.37 -523.96 116.09 -440.45 96.37 -336.31 64.85 -193.28 30.88 -143.33 32 -275.87 36.17 -404.05 46.94 -532.82 63.87 -634.74 81.18 -687.56 103.96 -678.39 132.07 -607.24 160.19 -491.69 192.97 -358.49 230.42 -237.72 268.25 -154.7 311.44 -125.55 360.28 -153.09 410.17 -230.9 466.29 -338.39 528.48 -451.57 591.28 -550.74 659.15 -613.22 730.43 -628.47 798.87 -595.39 866.66 -518.92 930.07 -412.95 983.5 -291.85 1025.98 -174.44 1053.1 -75.51 1063.22 -4.15 1053.79 32.73 1023.76 36.01 979.13 7.8 919.78 -42.34 851.74 -104.22 787.98 -173.28 732.65 -235.95 695.9 -285.33 688.22 -321.1 712.43 -336.32 771.06 -331.49 859.61 -309.18 970.62 -270.47 1091.23 -219.78 1203.51 -158.3 1293.07 -91.56 1344.71 -23.49 1350.27 47.92 1307.61 116.31 1223.07 179.8 1115.51 242.88 1002.6 299.88 908.02 350.54 855.12 400.2 854.59 444.04 909.92 482.31 1011.87 520.2 1139.99 553.21 1266.86 581.32Q1266.9 581.33 1266.9 581.33" opacity="0.87"></path><path d="M1176.37 191.21C1265.15 216.2 1313.26 236.94 1313.76 253.85 1268.37 271.15 1184.5 285.44 1076.92 297.74 961.84 311.76 857.06 325.56 776.94 340.83 731.02 360.16 723.44 383.59 751.63 413.13 811.18 449.35 889.49 494.07 973.93 548.51 1056.3 610.19 1122.38 681.25 1164.75 760.45 1181.31 841.87 1168.51 925.87 1129.24 1007.82 1067.13 1080.29 988.61 1140.97 901.09 1184.02 808.28 1205.51 718.77 1202.94 637.45 1174.87 565.03 1126.41 506.22 1059.36 461.23 980.91 429.01 904.59 409.06 836.9 398.77 788.96 397.96 771.68 402.55 788.31 409.64 840.75 421.36 924.38 432.04 1030.44 439.82 1145.46 448.96 1252.33 453.46 1336.19 452.52 1382.84 451.66 1384.94 444.97 1340.62 432.2 1256.04 419.36 1147.9 400.52 1032.57 375.53 931.27 350.54 865.2 319.99 845.09 284.15 872.57 248.25 943.03 206.98 1040.95 160.7 1148.08 114.51 1248.89 63.71 1323.88 9.23 1361.83 -43.88 1358.99 -98.94 1314.83 -153.97 1237.19 -204.37 1136.12 -251.19 1025.82 -291.41 920.03 -322.17 828.67 -342.05 761.94 -348.34 723.99 -341.87 716.22 -320.25 735.52 -283.6 775.62 -238.03 832.97 -182.84 896.51 -122.78 958.34 -68.02 1016.5 -20.69 1061.49 11.89 1090.37 21.66 1104.44 6.64 1100.56 -35.93 1080.74 -104.33 1047.1 -194.62 1001.99 -299.29 949.17 -406.02 888.85 -504.69 826.03 -582.56 763.61 -629.07 699.16 -637.76 638.1 -605.94 581.71 -539.92 525.82 -447.09 475.31 -341.65 430.34 -243.71 386.18 -167.2 347.11 -126.76 312.97 -132.2 279.12 -182.84 249.67 -271.62 224.68 -383.79 199.69 -496.96 179.74 -591.44 164.91 -653.85 150.37 -672.1 141.47 -644.69 138.51 -577.08 136.34 -479.83 140.55 -368.35 151.1 -257.32 162.15 -162.43 178.82 -94.67 199.97 -60.53 219.08 -61.58 239.66 -93.7 258.96 -152.5 270.74 -225.91 276.02 -302.94 271.15 -377.58 252.46 -437.36 219.15 -476.43 169.32 -493.83 104.7 -485.98 25.39 -455.24 -65.51 -404.34 -160.1 -337.97 -254.83 -261.99 -341.7 -178.45 -411.31 -94.68 -458.44 -14.87 -476.71 61.54 -464.78 129.18 -422.27 187.18 -353.21 237.62 -269.72 278.57 -179.78 311.43 -97.02 337.71 -37.69 358.41 -9.79 375.54 -21.05 388.8 -73.09 401.07 -160 413.96 -270.45 425.26 -387.22 438.85 -492.51 455.74 -567.92 472.25 -600.35 492.8 -582.8 517.79 -516.74 542.78 -415.45 571.62 -297.59 603.78 -184.5 635.58 -94.96 669.95 -43.27 705.78 -35.72 740.02 -72.71 774.05 -144.63 806.12 -237.4 834.34 -338.32 858.02 -428.11 875.05 -493.43 885.5 -527.56 886.79 -523.83 877.38 -484.27 860.41 -414.03 832.61 -322.14 794.71 -219.79 753.42 -115.31 706.85 -20.44 659.06 57.52 602.81 131.99 582.32 136.66 640.91 86.77 709.49 40.57 797.09 -6.22 897.75 -49.13 1000.8 -89.81 1098.43 -121.04 1179.53 -141.68 1233.94 -155.09 1255.35 -157.57 1239.53 -150.49 1190.09 -136.72 1111.47 -115.76 1014.54 -89.75 917.16 -59.68 831.85 -27.18 773.88 5.92 756.11 40.75 781.72 74.43 849.07 105.8 948.5 137.57 1064.2 166.22 1176.37 191.21Q1176.37 191.21 1176.37 191.21" opacity="0.78"></path><path d="M1085.91 214.26C1165.46 236.12 1214.71 261.71 1228.15 290.98 1205.77 320.49 1150.12 354.11 1069.29 392.01 972.91 430.62 872.8 473.99 780.23 522.12 703.87 571 651.32 624.43 625.9 681.7 628.88 738.29 657 796.97 704.68 855.84 768.2 910.37 837.51 961.41 905.05 1006.05 967.74 1041.02 1016.87 1065.18 1049.03 1075.87 1064.4 1073.09 1060.27 1055 1038.31 1021.49 1000.49 977.43 949.59 922.47 889.63 860.67 821.71 800.9 751.1 745.28 681.08 700.42 610.81 674.41 545.17 669.48 485.51 689.26 429.56 734.5 380.5 802.93 338.02 889.97 299.75 986.93 266.98 1085.65 238.65 1175.36 213.26 1245.35 190.65 1287.7 169.72 1296.08 150.21 1270 131.02 1210.95 111.4 1125.76 92.13 1027.84 71.71 928.08 49.84 840.78 27.98 780.55 5.18 754.81 -18.14 765.64 -41.1 811.73 -63.88 884.32 -85.61 972.38 -105.92 1066.47 -123.82 1151.79 -138.11 1217.91 -149.44 1259.37 -155.52 1269.66 -155.14 1248.88 -150.55 1200.05 -138.45 1128.44 -118.41 1042.11 -94.65 947.7 -63.87 854.8 -27.3 770.74 9.01 699.64 47.07 646.8 83.7 613.57 112.38 600.24 133.25 604.95 142.41 624.17 135.71 656.97 112.55 696.87 71.36 739.4 13.37 785.07 -60.1 826.77 -145.56 861.97 -235.86 893.02 -326.36 914.84 -409.38 927.31 -499.54 932.11 -512.97 895.24 -429.8 860.74 -349.57 833.45 -259.89 804.55 -171.95 775.42 -99.57 744.98 -50.35 715.65 -32.3 688.35 -50.07 660.74 -101.53 635.78 -181.08 613.91 -278.6 592.04 -378.58 573.78 -467.51 558.8 -555.09 537.19 -517.07 502.16 -404.7 483.97 -309.05 468.51 -210.99 450.25 -120.45 427.61 -44.56 399.73 9.79 365.41 39.81 323.4 44.4 275.03 26.08 218.35 -10.52 153.6 -62.91 84.7 -122.46 10.46 -182.8 -66.49 -242.16 -140.31 -292.26 -210.24 -329.82 -271.71 -360.51 -335.59 -326.63 -342.45 -270.75 -279.88 -221.51 -218.59 -167.1 -146.89 -110.32 -71.98 -50.05 -5.15 9.17 48.63 65.68 81.44 122.33 86.2 174.79 61.68 222.55 7.9 269.31 -70.54 311.35 -166.3 348.79 -268.83 385.43 -365.33 418.04 -444.36 446.85 -494.8 475.4 -509.96 500.62 -486.46 522.49 -426.24 544.36 -338.95 562.35 -236.98 576.4 -134.73 590.19 -45.2 599.55 20.28 604.15 54.81 607.95 54.89 606.41 22.99 599.33 -34.64 591.25 -112.02 577.62 -196.5 558.87 -277.43 540.25 -348.45 517.98 -399.07 493.61 -424.8 472.74 -425.09 453.18 -398.97 437.64 -350.2 430.87 -282.58 432.59 -202.61 445.54 -117.02 471.72 -29.4 511.68 52.84 566.05 125.56 632.27 187.74 709.66 235.86 794.84 269.93 881 290.54 964.9 298.93 1040.07 297.67 1099.45 286.73 1138.96 270.55 1153.89 251.92 1143.38 228.96 1106.85 207.24 1046.99 188.54 972.48 169.16 888.66 154.57 805.35 145.37 710.53 135.48 697.8 144.18 792.91 161.43 886.15 174.76 988.34 192.38 1085.87 214.25Q1085.91 214.26 1085.91 214.26" opacity="0.97"></path><path d="M995.41 604.89C1065.14 623.63 1113.24 645.2 1135.72 669.24 1132.04 693.07 1102.05 718.93 1049.5 746.15 979.37 772.45 898.15 799.15 813.13 825.24 730.21 849.14 656.31 870.95 596.27 889.35 541.02 908.54 550.67 908.81 604.01 885.65 653.22 862.35 705.84 831.45 757.75 793.82 808.7 754.44 852.65 711.72 887.49 668.28 922.16 613.38 921.87 561.46 891.21 580.49 860.73 615.12 824.68 665.79 785.03 730.97 741.25 806.41 696.35 888.84 651.81 972.71 605.65 1050.94 561.39 1118.51 519.9 1169.24 478.09 1198.58 439.65 1203.42 404.97 1182.29 370.37 1138.1 339.59 1073.08 312.79 993.04 286.06 907.81 263.22 823.88 244.48 750.28 218.63 682.16 189.45 713.76 186.1 801.42 185.43 877.46 189.15 955.84 196.95 1028.99 204.44 1092.71 215.41 1139.38 229.09 1165.72 241.14 1171.39 254.37 1155.12 267.38 1119.25 276.25 1066.46 282.42 1000.99 284.02 927.83 278.31 849.89 265.36 773 243.56 701.11 212.32 635.5 171.04 580.04 119.57 535.85 60.17 502.75 -7.17 481.22 -80.25 469.97 -154.29 468.71 -227.78 474.99 -296.5 486.57 -355.31 504.29 -401.58 523.98 -431.4 543.75 -442.69 565.9 -433.8 585.79 -404.37 602.31 -358.07 618.97 -296.37 631.27 -224.03 638.9 -149.59 645.89 -77.32 648.18 -14.42 645.87 30.88 643.02 55.36 635.95 55.33 624.83 29.14 613.54 -20.85 598.52 -90.58 579.77 -173.56 561.03 -259.5 539.01 -339.74 513.8 -408.63 488.41 -457.93 459.51 -483.71 427.01 -485.29 393.98 -461.9 356.97 -416.56 315.98 -353.24 274.34 -277.52 228.74 -195.79 179.61 -112.89 130.6 -35.47 79.04 31.79 26.12 86.26 -24.42 124.89 -73.99 147.17 -120.6 152.91 -161.07 143.97 -195.25 123.08 -220.82 90.76 -236.39 52.14 -240.6 10.69 -232.06 -33.98 -212.45 -76.1 -180.39 -113.4 -136.91 -147.62 -87.15 -174.25 -31.14 -192.8 27.28 -205.65 80.93 -210.32 128.23 -207.63 164.31 -199.57 183.47 -185.58 184.47 -167.03 165.07 -144.75 125 -119.67 66.14 -93.1 -8.15 -64.51 -91.87 -35.83 -179.2 -8.04 -262.48 20.55 -333.72 47.4 -386.54 71.86 -414.96 96.51 -416.4 118.38 -389.38 137.12 -335.74 155.87 -262.15 171.04 -176.32 182.9 -87.38 194.96 -3.63 204.08 66.91 210.82 118.34 218.39 146.71 224.43 150.83 229.84 132.08 237.27 91.93 245.49 36.56 255.68 -27.92 269.61 -98.05 287.3 -165.2 310 -223.92 338.1 -272.4 372.64 -304.91 414.37 -320.03 461.8 -318.5 516.33 -299.73 577.36 -266.01 641.48 -219.14 709.34 -162.49 778.58 -99.66 844.6 -31.66 906.61 36.79 961.07 103 1004.11 167.44 1033.92 226.24 1047.7 278.43 1044.94 325.49 1024.48 365.35 986.73 398.51 936.19 426.33 874.04 448.64 804.88 466.62 736.89 480.71 673.37 492.19 620.62 502.3 585.85 510.21 571.4 518.23 580.2 527.28 613.21 535.41 668.01 545.52 740.6 558.2 824.55 570.67 912.39 586.14 995.37 604.88Q995.41 604.89 995.41 604.89" opacity="0.57"></path><path d="M904.9 589.98C1010.23 621.22 1047.21 640.36 1010.98 646.76 914.29 651.48 781.28 640.91 644.18 614.73 526.26 587.06 449.01 546.87 417.93 500.64 432.37 466.31 479.09 442.48 541.08 442.16 614.86 476.09 678.48 546.58 723.68 653.21 757.5 780.56 769.15 914.82 762.45 1029.58 745.75 1098.86 718.23 1106.16 685.8 1043.93 650.5 931.04 615.8 789.79 584.56 659.75 553.33 584.28 527.02 580.65 503.41 643.26 476.93 756.35 447.63 882.12 410.19 987.65 362.76 1056.66 299.66 1069.48 217.69 1029.55 124.35 946.43 15.87 836.67 -98.84 720.11 -201.77 603.54 -285.52 504.06 -332.49 426.52 -333.94 366.67 -284.7 326.49 -189.68 299.53 -75.48 283.31 39.74 270.47 124.38 254.94 148.55 241.96 105.24 221.08 -0.08 189.84 -141.67 158.6 -274.62 118.49 -364.33 72.56 -395.2 29.17 -357.58 -14.81 -265.79 -52.72 -139.08 -79.89 -4.87 -91.16 113.01 -79.46 203.28 -50.06 255.11 4.55 271.67 80.19 255.86 155.81 221.11 228.52 180.38 279.11 131.09 286.52 90.99 245.69 65.17 153.78 42.3 25.35 35.18 -118.18 42.61 -243.34 51.98 -318 72.78 -320.7 104.02 -245.23 135.26 -115.19 175.45 32.38 224.99 157.32 276.47 231.62 340.42 242.09 417.43 195.71 497.39 103.85 588.93 -2.38 686.37 -97.21 775.24 -171.32 854.84 -204.77 911.6 -197.75 935.98 -156.49 921.18 -87.81 863.44 -5.34 778.08 89.03 671.88 180.66 568.07 262.47 499.18 342.78 479.33 410.18 522.26 464.37 624.03 516.89 763.31 558.74 904.9 589.98Q904.9 589.98 904.9 589.98" opacity="0.79"></path><path d="M814.41 199.07C903.18 224.06 949.68 240.27 948.99 249.34 905.12 259.96 825.12 266.61 724.19 273.16 613.84 286.38 510.04 305.99 423.61 337.05 357.94 381.4 317.68 442.48 300.05 521.29 303.55 610.76 320.55 711.02 343.51 813.01 375.13 902.68 403.45 972.75 423.95 1010.35 445.34 1009.82 455.99 967.27 454.76 885.93 453.12 783.23 440.02 670.58 415.03 569.28 390.04 503.21 354.34 481.77 308.85 504.68 262.95 568.29 206.84 655.37 142.14 748.49 78.33 839.55 8.86 909.07 -61.27 949.66 -122.75 963 -175.63 945.63 -211.88 904.22 -227.01 843.15 -216.37 770.77 -176.72 695.58 -116.32 615.73 -34.93 541.54 57.09 476.55 139.71 413.16 205.48 359.8 239.7 316.6 230.74 274.48 179.18 240.82 90.41 215.82 -21.75 190.83 -132.34 175.7 -222.11 170.68 -282.36 166.74 -300.41 174.64 -277.35 194.72 -219.14 216.39 -134.68 249.43 -37.47 290.77 65.79 327.44 161.73 363.94 243.21 392.26 310.97 400.92 360.27 388.67 393.56 349.32 413.48 282.71 423.87 190.79 430.06 81.41 430.21 -30.02 432.41 -131.32 440.3 -204.58 446.91 -237.16 461.92 -220.8 486.91 -154.74 511.9 -53.46 545.68 64.25 586.2 176.61 625.43 267.6 668.7 324.39 711.86 343.25 748.99 323.96 779.75 276.31 798.35 212.67 803.59 136.69 790.17 66.06 755.17 9.34 706.45 -36.7 640.14 -61.9 562.9 -67.74 491.71 -60.28 429.65 -38.74 389.75 -8.65 385 28.1 417.26 66.92 487.15 103.43 586.55 141.48 702.2 174.07 814.37 199.06Q814.41 199.07 814.41 199.07" opacity="0.39"></path><path d="M723.91 205.77C793.64 224.51 840.34 249.43 860.98 280.25 857.13 311.75 828.36 350.32 779.74 395.98 715.34 443.17 641.57 497.93 565.21 559.01 487.65 619.89 415.86 684.3 353 748.39 297.01 805.48 251.52 855.3 215.75 892.27 186.97 912.75 165.1 913.67 147.75 892.14 134.17 851.76 121.77 791.26 108.5 715.04 96.23 634.3 81.17 552.38 62.43 478.78 43.68 425.13 22.15 395.42 -0.92 390.64 -23 411.23 -44.69 451.22 -63.6 504.01 -78.74 568.19 -87.73 632.82 -87.84 691.64 -80.96 746.36 -62.37 788.11 -30.95 815.55 7.33 833 56.9 836.72 114.95 829.21 171.79 813.86 228.75 791.39 279.41 765.19 314.3 735.35 332.4 705.36 329.01 677.78 301.14 649.33 250.64 625.04 180.91 606.3 97.93 587.55 13.97 575.24 -62.11 568.34 -150.85 558.51 -192.39 543.35 -148.35 525.61 -98.7 504.24 -39.47 473.62 23.82 431.6 91.63 379.6 157.18 315.63 217.34 241.4 276.16 163.06 327.82 81.63 371.74 3.71 413.53 -62.82 448.73 -113.48 477.78 -141.31 506.03 -143.77 529.55 -117.88 548.3 -64.24 567.04 9.34 580.12 95.06 587.22 183.04 593.52 266.5 592.42 337.67 583.12 391.8 571.68 427.07 550.9 442.96 520.97 442 489.69 424.56 451.04 396.96 407.81 364.43 369.07 324.91 332.05 287.4 301.92 255.41 286.29 223.22 285.29 199.32 302.68 184.61 340.2 171.44 396.84 166.97 469.82 170.81 553.14 175.34 640.89 187.02 723.87 205.76Q723.91 205.77 723.91 205.77" opacity="0.13"></path><path d="M633.37 596.85C722.16 621.84 765.47 662.02 762.78 709.07 723.33 750.18 654.58 786.38 575.36 803.62 486.4 799.04 404.82 761.26 340.28 687.37 276.96 596.86 230.99 489.57 206 388.27 181.01 322.2 179.36 298.11 199.37 311.79 220.6 360.61 263.18 423.1 319.39 481.23 365.85 543.06 408.09 585.31 429.23 603.68 413.6 618.73 360.16 613.46 271.37 588.47 159.2 563.48 53.77 521.13 -25.4 462.77 -80.78 401.09 -98.09 319.84 -84.54 225.26 -49.81 134.38 -0.87 45.38 47.95 -21.74 101.63 -53.75 144.95 -39.81 169.94 26.24 194.94 127.53 199.23 244.96 188.86 353.8 183.34 446.01 173.4 510.3 171.43 547.65 190.62 563.16 234.44 565.97 308.15 568.16 405.64 564.42 521.2 571.86 633.37 596.85Q633.37 596.85 633.37 596.85" opacity="0.62"></path></g><defs><linearGradient x1="50%" y1="0%" x2="50%" y2="100%" id="ssscribble-grad"><stop stop-color="hsl(0, 0%, 100%)" stop-opacity="1" offset="0%"></stop><stop stop-color="hsl(0, 100%, 50%)" stop-opacity="1" offset="100%"></stop></linearGradient></defs></svg>