<svg xmlns="http://www.w3.org/2000/svg" version="1.1" xmlns:xlink="http://www.w3.org/1999/xlink" xmlns:svgjs="http://svgjs.dev/svgjs" viewBox="0 0 640 800" opacity="0.29"><g stroke-width="2.5" stroke="hsl(0, 100%, 50%)" fill="none" stroke-linecap="butt"><line x1="0" y1="0" x2="92" y2="92" opacity="1.00"></line><line x1="184" y1="0" x2="92" y2="92" opacity="1.00"></line><line x1="184" y1="0" x2="276" y2="92" opacity="1.00"></line><line x1="368" y1="0" x2="276" y2="92" opacity="1.00"></line><line x1="368" y1="0" x2="460" y2="92" opacity="1.00"></line><line x1="552" y1="0" x2="460" y2="92" opacity="1.00"></line><line x1="644" y1="0" x2="552" y2="92" opacity="1.00"></line><line x1="0" y1="92" x2="92" y2="184" opacity="0.89"></line><line x1="184" y1="92" x2="92" y2="184" opacity="0.89"></line><line x1="184" y1="92" x2="276" y2="184" opacity="0.89"></line><line x1="276" y1="92" x2="368" y2="184" opacity="0.89"></line><line x1="460" y1="92" x2="368" y2="184" opacity="0.89"></line><line x1="460" y1="92" x2="552" y2="184" opacity="0.89"></line><line x1="644" y1="92" x2="552" y2="184" opacity="0.89"></line><line x1="92" y1="184" x2="0" y2="276" opacity="0.78"></line><line x1="184" y1="184" x2="92" y2="276" opacity="0.78"></line><line x1="276" y1="184" x2="184" y2="276" opacity="0.78"></line><line x1="276" y1="184" x2="368" y2="276" opacity="0.78"></line><line x1="460" y1="184" x2="368" y2="276" opacity="0.78"></line><line x1="552" y1="184" x2="460" y2="276" opacity="0.78"></line><line x1="644" y1="184" x2="552" y2="276" opacity="0.78"></line><line x1="0" y1="276" x2="92" y2="368" opacity="0.67"></line><line x1="184" y1="276" x2="92" y2="368" opacity="0.67"></line><line x1="276" y1="276" x2="184" y2="368" opacity="0.67"></line><line x1="276" y1="276" x2="368" y2="368" opacity="0.67"></line><line x1="368" y1="276" x2="460" y2="368" opacity="0.67"></line><line x1="552" y1="276" x2="460" y2="368" opacity="0.67"></line><line x1="644" y1="276" x2="552" y2="368" opacity="0.67"></line><line x1="0" y1="368" x2="92" y2="460" opacity="0.56"></line><line x1="184" y1="368" x2="92" y2="460" opacity="0.56"></line><line x1="276" y1="368" x2="184" y2="460" opacity="0.56"></line><line x1="368" y1="368" x2="276" y2="460" opacity="0.56"></line><line x1="368" y1="368" x2="460" y2="460" opacity="0.56"></line><line x1="460" y1="368" x2="552" y2="460" opacity="0.56"></line><line x1="552" y1="368" x2="644" y2="460" opacity="0.56"></line><line x1="92" y1="460" x2="0" y2="552" opacity="0.45"></line><line x1="184" y1="460" x2="92" y2="552" opacity="0.45"></line><line x1="276" y1="460" x2="184" y2="552" opacity="0.45"></line><line x1="368" y1="460" x2="276" y2="552" opacity="0.45"></line><line x1="460" y1="460" x2="368" y2="552" opacity="0.45"></line><line x1="552" y1="460" x2="460" y2="552" opacity="0.45"></line><line x1="552" y1="460" x2="644" y2="552" opacity="0.45"></line><line x1="0" y1="552" x2="92" y2="644" opacity="0.34"></line><line x1="184" y1="552" x2="92" y2="644" opacity="0.34"></line><line x1="184" y1="552" x2="276" y2="644" opacity="0.34"></line><line x1="276" y1="552" x2="368" y2="644" opacity="0.34"></line><line x1="368" y1="552" x2="460" y2="644" opacity="0.34"></line><line x1="460" y1="552" x2="552" y2="644" opacity="0.34"></line><line x1="552" y1="552" x2="644" y2="644" opacity="0.34"></line><line x1="92" y1="644" x2="0" y2="736" opacity="0.24"></line><line x1="92" y1="644" x2="184" y2="736" opacity="0.24"></line><line x1="276" y1="644" x2="184" y2="736" opacity="0.24"></line><line x1="368" y1="644" x2="276" y2="736" opacity="0.24"></line><line x1="368" y1="644" x2="460" y2="736" opacity="0.24"></line><line x1="552" y1="644" x2="460" y2="736" opacity="0.24"></line><line x1="552" y1="644" x2="644" y2="736" opacity="0.24"></line><line x1="92" y1="736" x2="0" y2="828" opacity="0.13"></line><line x1="92" y1="736" x2="184" y2="828" opacity="0.13"></line><line x1="276" y1="736" x2="184" y2="828" opacity="0.13"></line><line x1="276" y1="736" x2="368" y2="828" opacity="0.13"></line><line x1="368" y1="736" x2="460" y2="828" opacity="0.13"></line><line x1="460" y1="736" x2="552" y2="828" opacity="0.13"></line><line x1="552" y1="736" x2="644" y2="828" opacity="0.13"></line></g></svg>
