<svg width="190" height="32" viewBox="0 0 190 32" fill="none" xmlns="http://www.w3.org/2000/svg" data-astro-cid-3ef6ksr2=""> <path class="logo-char" d="M180.297 26.8528L180.297 8.07946L183.744 8.07946L183.744 26.8528L180.297 26.8528ZM174.168 26.8528V24.0539L189.395 24.0539V26.8528L174.168 26.8528ZM176.926 10.8784V8.07946L182.003 8.07946V10.8784L176.926 10.8784ZM180.058 4.87092V1.15039L183.915 1.15039V4.87092L180.058 4.87092Z" fill="#0E0E10" data-astro-cid-3ef6ksr2=""></path> <path class="logo-char" d="M145.962 26.8527L145.962 22.6201L150.195 22.6201V26.8527L145.962 26.8527Z" fill="#0E0E10" data-astro-cid-3ef6ksr2=""></path> <path class="logo-char" d="M134.591 26.8158C133.431 26.8158 132.441 26.5883 131.621 26.1332C130.802 25.6553 130.188 24.984 129.778 24.1193C129.369 23.2546 129.164 22.242 129.164 21.0814L129.164 3.74658L132.611 3.74658L132.611 21.0814C132.611 21.6276 132.691 22.1282 132.85 22.5833C133.01 23.0384 133.317 23.3911 133.772 23.6414C134.25 23.8917 134.944 24.0169 135.854 24.0169L139.282 24.0169L139.282 26.8159L134.591 26.8158ZM124.727 10.8414L124.727 8.04249L138.482 8.04249L138.482 10.8414L124.727 10.8414Z" fill="#0E0E10" data-astro-cid-3ef6ksr2=""></path> <path class="logo-char" d="M73.7846 26.8529L73.7846 5.96327C73.7846 4.80273 74.0008 3.79011 74.4332 2.9254C74.8655 2.06069 75.5027 1.37802 76.3446 0.877399C77.2093 0.376776 78.2675 0.126465 79.519 0.126465L83.1372 0.126465L83.1372 2.9254L80.543 2.9254C79.9286 2.9254 79.3597 3.00504 78.8364 3.16433C78.3357 3.32362 77.9375 3.61944 77.6417 4.0518C77.3686 4.4614 77.2321 5.06442 77.2321 5.86087L77.2321 26.8529L73.7846 26.8529ZM69.3473 10.8785L69.3473 8.07953L83.1372 8.07953L83.1372 10.8785L69.3473 10.8785Z" fill="#0E0E10" data-astro-cid-3ef6ksr2=""></path> <path class="logo-char" fill-rule="evenodd" clip-rule="evenodd" d="M46.7145 7.99995C46.0318 7.78397 45.2865 7.66992 44.4954 7.66992C43.3576 7.66992 42.3109 7.89748 41.3551 8.35259C40.4222 8.78494 39.5916 9.43348 38.8634 10.2982C38.606 10.6138 38.3622 10.9581 38.132 11.3312L37.9759 8.07952H34.7333V26.8529H38.1807V15.2431C38.7396 13.9565 39.4109 12.9454 40.1946 12.2097C41.3096 11.1401 42.5726 10.6054 43.9834 10.6054C45.6493 10.6054 46.3576 11.064 46.7145 11.3341V7.99995Z" fill="#0E0E10" data-astro-cid-3ef6ksr2=""></path> <path class="logo-char" fill-rule="evenodd" clip-rule="evenodd" d="M52.7809 26.1019C54.1918 26.8756 55.8643 27.2625 57.7985 27.2625C60.3016 27.2625 62.3496 26.6594 63.9425 25.4534C64.6434 24.9227 65.2187 24.304 65.6685 23.5971L62.9097 21.7195C62.5862 22.3567 62.1112 22.8959 61.4849 23.3371C60.5064 24.0425 59.2776 24.3953 57.7985 24.3953C56.547 24.3953 55.4775 24.1108 54.59 23.5419C53.7025 22.973 53.0199 22.1766 52.542 21.1526C52.1505 20.2522 51.9274 19.2425 51.8727 18.1233H66.3724C67.0395 11.399 63.588 7.66992 57.9351 7.66992C55.9553 7.66992 54.2487 8.05677 52.8151 8.83046C51.4042 9.60415 50.312 10.7192 49.5383 12.1755C48.7873 13.6319 48.4119 15.3841 48.4119 17.4321C48.4119 19.4801 48.7873 21.2436 49.5383 22.7227C50.2892 24.1791 51.3701 25.3055 52.7809 26.1019ZM52.0257 15.5315C52.2555 14.2368 52.7234 13.175 53.4295 12.3462C54.4762 11.1174 55.9781 10.503 57.9351 10.503C60.3806 10.503 63.1233 12.3462 63.1233 15.5633L52.0257 15.5315Z" fill="#0E0E10" data-astro-cid-3ef6ksr2=""></path> <path class="logo-char" fill-rule="evenodd" clip-rule="evenodd" d="M114.987 27.2625C113.053 27.2625 111.369 26.8642 109.935 26.0678C108.524 25.2486 107.432 24.1108 106.658 22.6545C105.885 21.1753 105.498 19.4459 105.498 17.4662C105.498 15.4409 105.896 13.7001 106.693 12.2438C107.489 10.7647 108.604 9.63828 110.038 8.86459C111.471 8.06814 113.144 7.66992 115.055 7.66992C116.58 7.66992 117.945 7.95437 119.151 8.52326C120.38 9.06939 121.37 9.85446 122.121 10.8785C122.226 11.0172 122.324 11.1595 122.417 11.3053L119.636 13.1983C119.351 12.5511 118.928 12.0168 118.366 11.5953C117.479 10.8898 116.375 10.5371 115.055 10.5371C113.826 10.5371 112.757 10.8216 111.847 11.3905C110.936 11.9366 110.231 12.7217 109.73 13.7457C109.23 14.7697 108.979 16.0098 108.979 17.4662C108.979 19.628 109.526 21.3233 110.618 22.5521C111.733 23.7809 113.189 24.3953 114.987 24.3953C115.806 24.3953 116.568 24.236 117.274 23.9174C117.979 23.5988 118.582 23.1437 119.083 22.5521C119.297 22.2896 119.482 22.0105 119.637 21.7148L122.386 23.5857C122.271 23.758 122.148 23.9255 122.018 24.0881C121.222 25.0893 120.209 25.8744 118.981 26.4433C117.774 26.9894 116.443 27.2625 114.987 27.2625Z" fill="#0E0E10" data-astro-cid-3ef6ksr2=""></path> <path class="logo-char" fill-rule="evenodd" clip-rule="evenodd" d="M98.8755 24.5411L98.9495 26.8529H102.226V14.7355C102.226 13.2337 101.885 11.9593 101.202 10.9126C100.542 9.86583 99.598 9.06939 98.3692 8.52326C97.1404 7.95437 95.6841 7.66992 94.0002 7.66992C92.3618 7.66992 90.9168 7.93161 89.6652 8.45499C88.4137 8.95561 87.4124 9.68379 86.6615 10.6395C86.4818 10.8628 86.3204 11.0977 86.1772 11.3444L88.8964 13.1951C89.1245 12.4146 89.5856 11.7789 90.2796 11.2881C91.2126 10.6054 92.4187 10.2641 93.8978 10.2641C95.4224 10.2641 96.6171 10.6509 97.4818 11.4246C98.3692 12.1755 98.813 13.2223 98.813 14.5649V15.6571H94.4439C91.7587 15.6571 89.6652 16.1919 88.1634 17.2614C86.6843 18.3309 85.9447 19.8328 85.9447 21.767C85.9447 22.882 86.2064 23.8605 86.7298 24.7025C87.2531 25.5217 87.9813 26.1588 88.9143 26.6139C89.8473 27.0463 90.9282 27.2625 92.157 27.2625C94.8555 27.2625 97.5601 26.2493 98.8755 24.5411ZM98.813 21.5447V18.2171H94.3074C92.76 18.2171 91.5426 18.5129 90.6551 19.1046C89.7904 19.6962 89.358 20.5268 89.358 21.5963C89.358 22.4838 89.6652 23.1778 90.2796 23.6785C90.9168 24.1791 91.7701 24.4294 92.8396 24.4294C95.442 24.4294 97.5858 23.7716 98.813 21.5447Z" fill="#0E0E10" data-astro-cid-3ef6ksr2=""></path> <path class="logo-char" fill-rule="evenodd" clip-rule="evenodd" d="M168.719 24.5411L168.793 26.8529H172.069V14.7355C172.069 13.2337 171.728 11.9593 171.045 10.9126C170.386 9.86583 169.441 9.06939 168.212 8.52326C166.984 7.95437 165.527 7.66992 163.843 7.66992C162.205 7.66992 160.76 7.93161 159.508 8.45499C158.257 8.95561 157.256 9.68379 156.505 10.6395C156.325 10.8628 156.164 11.0977 156.02 11.3444L158.74 13.1951C158.968 12.4146 159.429 11.7789 160.123 11.2881C161.056 10.6054 162.262 10.2641 163.741 10.2641C165.266 10.2641 166.46 10.6509 167.325 11.4246C168.212 12.1755 168.656 13.2223 168.656 14.5649V15.6571H164.287C161.602 15.6571 159.508 16.1919 158.007 17.2614C156.527 18.3309 155.788 19.8328 155.788 21.767C155.788 22.882 156.05 23.8605 156.573 24.7025C157.096 25.5217 157.824 26.1588 158.757 26.6139C159.69 27.0463 160.771 27.2625 162 27.2625C164.699 27.2625 167.403 26.2493 168.719 24.5411ZM168.656 21.5447V18.2171H164.151C162.603 18.2171 161.386 18.5129 160.498 19.1046C159.634 19.6962 159.201 20.5268 159.201 21.5963C159.201 22.4838 159.508 23.1778 160.123 23.6785C160.76 24.1791 161.613 24.4294 162.683 24.4294C165.285 24.4294 167.429 23.7716 168.656 21.5447Z" fill="#0E0E10" data-astro-cid-3ef6ksr2=""></path> <path d="M21.5515 31.2385C20.1861 31.2385 18.9687 30.9768 17.8992 30.4534C16.8297 29.9528 15.9877 29.2019 15.3733 28.2006C14.7817 27.1994 14.4859 25.9706 14.4859 24.5142L14.4859 21.5446C14.4859 20.9075 14.2697 20.3955 13.8373 20.0086C13.4277 19.599 12.8702 19.3601 12.1648 19.2918L12.1648 15.9809C12.8702 15.9354 13.4277 15.6964 13.8373 15.2641C14.2697 14.809 14.4859 14.2856 14.4859 13.694L14.4859 10.7926C14.4859 9.35903 14.7931 8.15298 15.4075 7.17449C16.0219 6.17325 16.8638 5.41094 17.9333 4.88756C19.0028 4.34143 20.2089 4.06836 21.5515 4.06836L23.1557 4.06836L23.1557 7.72063L22.1659 7.72063C21.2556 7.72063 20.5275 8.01645 19.9813 8.60809C19.4352 9.19974 19.1621 10.0417 19.1621 11.134L19.1621 13.2502C19.1621 14.6156 18.7753 15.7078 18.0016 16.527C17.2507 17.3235 16.2949 17.881 15.1344 18.1996L15.1685 17.0049C16.3291 17.3462 17.2848 17.9379 18.0357 18.7798C18.7867 19.599 19.1621 20.6685 19.1621 21.9884L19.1621 24.1729C19.1621 25.2879 19.4352 26.1413 19.9813 26.7329C20.5275 27.3018 21.2556 27.5862 22.1659 27.5862L23.1557 27.5862L23.1557 31.2385L21.5515 31.2385Z" fill="#E7150D" data-astro-cid-3ef6ksr2=""></path> <path d="M0 31.2384L0 4L4.64213 4L4.64213 31.2384L0 31.2384ZM1.57013 31.2384L1.57013 27.5861L9.35254 27.5861L9.35254 31.2384L1.57013 31.2384ZM1.57013 7.65227L1.57013 4L9.35254 4L9.35254 7.65227L1.57013 7.65227Z" fill="#E7150D" data-astro-cid-3ef6ksr2=""></path> </svg>